<svg xmlns="http://www.w3.org/2000/svg" width="375" height="376" viewBox="0 0 375 376">
  <g id="Group_40733" data-name="Group 40733" transform="translate(-2876 4014)">
    <g id="Group_40729" data-name="Group 40729" transform="translate(1081)">
      <g id="Group_40725" data-name="Group 40725" transform="translate(1795 -4045)">
        <rect id="Rectangle_18982" data-name="Rectangle 18982" width="375" height="375" transform="translate(0 31)" fill="#126e82"/>
      </g>
      <path id="Rectangle_18985" data-name="Rectangle 18985" d="M10,0H365a10,10,0,0,1,10,10V22a0,0,0,0,1,0,0H0a0,0,0,0,1,0,0V10A10,10,0,0,1,10,0Z" transform="translate(1795 -3660)" fill="#fff"/>
    </g>
    <g id="Group_40731" data-name="Group 40731" transform="translate(2896.057 -4030.668)">
      <g id="Group_623" data-name="Group 623" transform="translate(65.559 98.059)">
        <g id="Group_624" data-name="Group 624">
          <g id="Group_626" data-name="Group 626">
            <g id="Group_607" data-name="Group 607" transform="translate(0 1.633)">
              <path id="Path_2119" data-name="Path 2119" d="M2214.849,888.283a113.982,113.982,0,0,1-218.044,45.905,112.517,112.517,0,0,1-9.722-45.905A113.677,113.677,0,0,1,2100.968,774.9q4.344,0,8.607.322a113.742,113.742,0,0,1,78.373,39.871,112.893,112.893,0,0,1,26.9,73.193Z" transform="translate(-1987.083 -774.897)" fill="#c4eaf4"/>
              <path id="Path_2120" data-name="Path 2120" d="M2523.279,1008.578a114.36,114.36,0,0,1-1.844,20.515c-4.636-.672-10.673-1.327-14.4-.889-6.714.79-13.427,14.612-27.249,15.155s-30.8-10.021-48.968-2.912-27.644-.4-30.8-5.529,7.9-16.981,6.9-22.115,1.4-22.51,16.8-22.51,22.509-7.9,24.484-11.452,13.822-.79,20.14-7.5-4.739-18.561,0-26.459,28.04-9.818,28.04-9.818A113.431,113.431,0,0,1,2523.279,1008.578Z" transform="translate(-2295.512 -895.031)" fill="#95bec9"/>
              <path id="Path_2121" data-name="Path 2121" d="M2046.964,1088.518c-5.529,7.786,1.974,23.977-2.765,32.27s-13.821,6.714-20.535,10.662c-5.829,3.428-8.165,17.572-26.859,22.533a114.44,114.44,0,0,1-7.081-70.607,34.8,34.8,0,0,1,16.169-9.188c22.509-5.923,28.111-7.287,37.085-5.832C2049.765,1069.457,2052.493,1080.73,2046.964,1088.518Z" transform="translate(-1987.083 -994.511)" fill="#95bec9"/>
              <path id="Path_2122" data-name="Path 2122" d="M2436.2,977.119s-13.822-2.764-21.325,1.975-22.707,13.229-20.732,18.166,16.388,8.688,22.312,8.49,23.3-9.083,30.605-8.49S2450.195,977.582,2436.2,977.119Z" transform="translate(-2291.409 -925.806)" fill="#95bec9"/>
              <path id="Path_2123" data-name="Path 2123" d="M2127.972,1389.021c-6.042,4.407-7.482,17.95-11.348,19.826-1.94.942-4.924,4.332-7.413,7.472a114.347,114.347,0,0,1-39.4-34.8c6.836-4.745,19.655-12.758,28.547-12.977,0,0,4.444-.052,7.738-9.081a42.729,42.729,0,0,1,4.3-9.091c2.48-3.654,5.476-5.461,9.451-4.036a6.867,6.867,0,0,1,3.579,2.767c2.3,3.425,2.444,8.866,8.922,14.11C2141.1,1370.3,2134.014,1384.614,2127.972,1389.021Z" transform="translate(-2048.958 -1202.943)" fill="#95bec9"/>
            </g>
            <g id="Group_609" data-name="Group 609" transform="translate(157.088)">
              <path id="Path_2131" data-name="Path 2131" d="M2630.342,768.419c-11.052,0-20.012,9.637-20.012,21.521s20.012,30.88,20.012,30.88,20.012-19,20.012-30.88S2641.395,768.419,2630.342,768.419Zm0,32.05a11.792,11.792,0,1,1,11.792-11.792A11.773,11.773,0,0,1,2630.342,800.469Z" transform="translate(-2610.33 -768.419)" fill="#eb594c"/>
            </g>
            <g id="Group_617" data-name="Group 617" transform="translate(31.42 64.553)">
              <path id="Path_2132" data-name="Path 2132" d="M2288.263,1325.787s.533.618.842.993a3.262,3.262,0,0,1,.486,2.052c-.2.243-1.456.6-1.5-.154S2288.263,1325.787,2288.263,1325.787Z" transform="translate(-2243.637 -1250.856)" fill="#f2beb7"/>
              <path id="Path_2133" data-name="Path 2133" d="M2465.983,1302.388s1.154,2.6,3.354,3.125c2.688.642,3.865,4.02,3.865,4.8s-3.439-1.744-4.8-1.792-2.083.644-3-1.155-2.083-3.544-2.083-3.544Z" transform="translate(-2374.704 -1233.355)" fill="#f2beb7"/>
              <path id="Path_2134" data-name="Path 2134" d="M2302.084,1160.191a7.139,7.139,0,0,0,3.233-.712c11.63-5.774.833-45.444.833-45.444a4.215,4.215,0,0,0-2.664-2.745,29.645,29.645,0,0,0-4.738-.407c-6.954-.506-7.3,3.558-7.543,4.982C2290.942,1117.309,2285.411,1160.11,2302.084,1160.191Z" transform="translate(-2245.159 -1090.086)" fill="#eb594c"/>
              <path id="Path_2135" data-name="Path 2135" d="M2324.969,1160.816c11.631-5.774.833-45.444.833-45.444a4.921,4.921,0,0,0-2.664-2.745c-4.493,1.18-5.428,3.314-5.672,4.575C2317.242,1118.544,2312.484,1155.286,2324.969,1160.816Z" transform="translate(-2264.81 -1091.422)" fill="#d8453d"/>
              <g id="Group_610" data-name="Group 610" transform="translate(36.224 73.83)">
                <path id="Path_2136" data-name="Path 2136" d="M2383.914,1649.034s-.646,5.171.517,5.752,15.06.388,15.06.388,0-1.745-2.392-2.133-6.593-1.81-7.3-4.977S2383.914,1649.034,2383.914,1649.034Z" transform="translate(-2351.403 -1564.841)" fill="#30545d"/>
                <path id="Path_2137" data-name="Path 2137" d="M2369.206,1338.163s-.786,9.8-1.708,21.575c-1.255,16-2.763,35.651-2.912,39.374-.258,6.465-1.294,16.806-1.294,16.806s-2.455,2.457-7.368,1.421a169.166,169.166,0,0,1-5.629-30.381c-.02-.256-.039-.514-.058-.772-1.164-15.9-2.972-49.381-2.972-49.381Z" transform="translate(-2324.125 -1332.927)" fill="#fff"/>
                <path id="Path_2138" data-name="Path 2138" d="M2369.206,1338.163s-.786,9.8-1.708,21.575l-17.2,27.22c-.02-.256-.039-.514-.058-.772-1.164-15.9-2.972-49.381-2.972-49.381Z" transform="translate(-2324.125 -1332.927)" fill="#eff8f9"/>
                <path id="Path_2139" data-name="Path 2139" d="M2296.954,1327.818s-14.155,35.484-23.463,52.16-12.215,21.329-12.215,21.329-5.332-2.133-5.817-3.587c0,0,3.559-32.193,9.792-40.041,3.522-4.434,7.659-17.742,7.853-22.4s1.26-13.864,1.26-13.864Z" transform="translate(-2255.459 -1321.42)" fill="#fff"/>
              </g>
              <path id="Path_2140" data-name="Path 2140" d="M2361.3,1097.1c-5.532,1.744-15.1-2.967-15.1-2.967a13.825,13.825,0,0,0,4.584-8.227s0,0,0,0a16.878,16.878,0,0,0,.249-3.555l5.175,4.172,2.007,1.618s-.006.548-.09,1.556-.244,2.5-.559,4.36A13.228,13.228,0,0,1,2361.3,1097.1Z" transform="translate(-2287.102 -1068.777)" fill="#f2beb7"/>
              <path id="Path_2141" data-name="Path 2141" d="M2377.832,1187.836a4.491,4.491,0,0,0,1.481-1.8s-10-13.7-10.846-15.041-7.149-22.79-7.149-22.79l-15.943-3.23s13.308,27.455,15.512,30.8c3.643,5.531,15.086,13.073,15.086,13.073A5.726,5.726,0,0,0,2377.832,1187.836Z" transform="translate(-2286.488 -1115.62)" fill="#23393d"/>
              <path id="Path_2142" data-name="Path 2142" d="M2326.216,1172.424c-.02.326.346.691.772.976a7.454,7.454,0,0,0,1,.549q1.83.823,3.6,1.464a33.127,33.127,0,0,0,8.641,2.053,50.734,50.734,0,0,0,9.577-.265c1.545-.183,2.806-.325,3.579-.325h.1a.885.885,0,0,0,.589-.224c.123-.081.224-4.92.163-11.427,0-.915-.02-1.851-.02-2.827a7.491,7.491,0,0,0-.041-.955v-.1c-.02-3.05-.122-6.283-.265-9.475v-.061c-.3-7.1-.854-13.929-1.809-17.73-.866-3.511-4.339-7.455-6.906-10.034a10.175,10.175,0,0,0-4.188-2.536c-2.74-.856-6.974-2-7.857-1.236a9.111,9.111,0,0,0-1.83,1.993c-.041.02-.041.02-.041.041h-.02a15.854,15.854,0,0,0-1.261,2.2,26.344,26.344,0,0,0-1.626,4.412,61.05,61.05,0,0,0-1.831,16.063c0,1.525.041,3.07.143,4.636.021.448.041.875.061,1.3.182,3.884.162,7.483.061,10.634v.1c-.1,3.193-.285,5.9-.427,7.91C2326.3,1170.777,2326.237,1171.753,2326.216,1172.424Z" transform="translate(-2272.157 -1096.95)" fill="#30545d"/>
              <path id="Path_2143" data-name="Path 2143" d="M2326.853,1220.11a152.648,152.648,0,0,0,.3-19.942c-.089-1.567-.135-3.12-.141-4.65,1.892-4.59,3.438-7.919,3.438-7.919h4.77S2338.72,1211.484,2326.853,1220.11Z" transform="translate(-2272.634 -1147.499)" fill="#23393d"/>
              <path id="Path_2144" data-name="Path 2144" d="M2371.807,1098.688s-.006.548-.09,1.557a13.684,13.684,0,0,1-7.34-3.788l0,0h0l5.423.617Z" transform="translate(-2300.699 -1079.326)" fill="#eda8a2"/>
              <path id="Path_2145" data-name="Path 2145" d="M2368.143,1059.937s-9.136,1.518-9.994-4.187-2.615-9.35,3.182-10.561,7.26.8,8.009,2.631S2370.5,1059.4,2368.143,1059.937Z" transform="translate(-2295.343 -1040.708)" fill="#f2beb7"/>
              <path id="Path_2146" data-name="Path 2146" d="M2354.294,1042.993s.938-.157.786-1.448-.149-2.979.9-2.665,1.1,1.155,1.534.664.439-2.559,3.563-2.7,4.394.943,5.847.3,1.529-2.838,1.529-2.838a2.5,2.5,0,0,1-1.038,1.035s2.425-3.315-.382-5.588-5.668-.785-7.292-.687c-3.578.216-5.889.431-7.058,2.782S2352,1040.73,2354.294,1042.993Z" transform="translate(-2291.497 -1028.499)" fill="#4a190c"/>
              <g id="Group_616" data-name="Group 616" transform="translate(0 77.048)">
                <path id="Path_2147" data-name="Path 2147" d="M2149.232,1653.693a3.366,3.366,0,0,1-1.842,4.466,3.542,3.542,0,0,1-4.6-1.789,3.367,3.367,0,0,1,1.842-4.467A3.541,3.541,0,0,1,2149.232,1653.693Z" transform="translate(-2134.754 -1571.618)" fill="#333"/>
                <path id="Path_2148" data-name="Path 2148" d="M2248.917,1653.68a3.367,3.367,0,0,1-1.843,4.466,3.541,3.541,0,0,1-4.6-1.789,3.367,3.367,0,0,1,1.842-4.467A3.541,3.541,0,0,1,2248.917,1653.68Z" transform="translate(-2209.313 -1571.608)" fill="#333"/>
                <path id="Path_2149" data-name="Path 2149" d="M2140.447,1648.489l4.98,1.738a4.63,4.63,0,0,0,1.571.258l28.261-.281,3.086-4.969Z" transform="translate(-2133.212 -1566.836)" fill="#23393d"/>
                <g id="Group_611" data-name="Group 611" transform="translate(22.156)">
                  <path id="Path_2150" data-name="Path 2150" d="M2200.774,1360.956l7.894-19.064.01-.036c.048-.171,1.276-4.265,8.39-5.18l.032-.005,5.851-1.071c.756-.193,2.94-.518,3.94.3a1.87,1.87,0,0,1,.55,1.741c-.147,1.6-5.4,13.96-8.9,21.879l1.119.466c.9-2.034,8.779-19.939,8.99-22.239a2.982,2.982,0,0,0-.979-2.752c-1.635-1.337-4.69-.625-5.014-.545l-5.77,1.055c-7.66.992-9.226,5.494-9.381,6.011l-7.867,19Z" transform="translate(-2199.644 -1334.188)" fill="#23393d"/>
                </g>
                <path id="Path_2151" data-name="Path 2151" d="M2254.8,1417.993l15.251,2.962s4.448,1.757,3.565,9.328c-.776,6.661-4.179,44.039-4.179,44.039s-.71,7.778-17.812,5.523Z" transform="translate(-2216.371 -1396.87)" fill="#23393d"/>
                <path id="Path_2152" data-name="Path 2152" d="M2158.63,1428.053l-4.1,41.86a9.269,9.269,0,0,1-1.735,4.554,9.817,9.817,0,0,1-7.9,4.008l-14.145.085-.35,0-8.859.053a10.042,10.042,0,0,1-2.566-.315q-.286-.073-.565-.162a9.624,9.624,0,0,1-6.3-6.395,9.152,9.152,0,0,1-.251-4.042l6.423-40.051a9.627,9.627,0,0,1,8.7-7.96l2.5-.232.6-.055h0l.5-.046,8.351-.776,1.025-.095,8.06-.748a10.009,10.009,0,0,1,3.627.323c.074.021.149.042.224.067l.466.155A9.45,9.45,0,0,1,2158.63,1428.053Z" transform="translate(-2111.741 -1396.648)" fill="#30545d"/>
                <g id="Group_615" data-name="Group 615" transform="translate(3.92 21.415)">
                  <g id="Group_612" data-name="Group 612" transform="translate(0 1.295)">
                    <path id="Path_2153" data-name="Path 2153" d="M2142.206,1424.289c-.062.037-6.623,3.92-7.485,7.333-.886,3.507-6.81,44.378-6.869,44.791a9.329,9.329,0,0,0,3.2,6.925l-.449-.1q-.287-.073-.565-.162a8.352,8.352,0,0,1-2.718-6.729c.243-1.687,5.988-41.311,6.879-44.843.782-3.094,5.407-6.178,6.906-7.109l.6-.054h0Z" transform="translate(-2127.292 -1424.289)" fill="#23393d"/>
                  </g>
                  <g id="Group_613" data-name="Group 613" transform="translate(13.808 0.424)">
                    <path id="Path_2154" data-name="Path 2154" d="M2192.558,1420.835a12.407,12.407,0,0,0-5.316,8.19c-.9,5.759-4.422,47.589-4.458,48.01l0,.03-.009.028a4.549,4.549,0,0,0,.94,3.813l-.355,0-.35,0a4.371,4.371,0,0,1-.753-3.947c.11-1.293,3.566-42.3,4.461-48.016a12.853,12.853,0,0,1,4.817-8.019Z" transform="translate(-2182.076 -1420.835)" fill="#23393d"/>
                  </g>
                  <g id="Group_614" data-name="Group 614" transform="translate(26.912)">
                    <path id="Path_2155" data-name="Path 2155" d="M2243.821,1419.375a11.025,11.025,0,0,0-2.564,2.058,11.673,11.673,0,0,0-2.891,6.1c-.9,5.756-3.693,47.446-3.722,47.866v.033l-.01.03a6.206,6.206,0,0,0,1.32,4.106l-.891.005a6.584,6.584,0,0,1-.947-4.237c.089-1.333,2.83-42.168,3.724-47.881a11.826,11.826,0,0,1,5.293-8.3c.074.021.149.042.224.066Z" transform="translate(-2234.067 -1419.153)" fill="#23393d"/>
                  </g>
                </g>
              </g>
              <path id="Path_2156" data-name="Path 2156" d="M2276.97,1302.627l-1.989,4.868a2.688,2.688,0,0,0-.07,1.809,4.475,4.475,0,0,1-2.277,5.493s-1.782.89-2.064-.492.037-.881-.405-2.822c-.387-1.7.489-2.747,1.064-3.92a5.15,5.15,0,0,0,.436-1.629l.4-3.062Z" transform="translate(-2230.164 -1233.534)" fill="#f2beb7"/>
              <path id="Path_2157" data-name="Path 2157" d="M2273.507,1184.772a15.647,15.647,0,0,0,3.58.2s5.1-15.751,5.756-17.19,15.145-17.431,15.145-17.431l-9.178-12.552s-12.529,22.586-14.12,26.265c-2.63,6.078-3.542,19.706-3.542,19.706A6.561,6.561,0,0,0,2273.507,1184.772Z" transform="translate(-2230.969 -1110.249)" fill="#30545d"/>
              <path id="Path_2158" data-name="Path 2158" d="M2328.3,1168.3v.1a16.217,16.217,0,0,0,6.73-3.4,25.491,25.491,0,0,0,7.5-11.61c2.358-6.933,2.541-14.375,1.342-18.036a6.247,6.247,0,0,0-.549-1.219,8.947,8.947,0,0,0-1.668-2.074,11.672,11.672,0,0,0-6.4-2.887,14.171,14.171,0,0,0-1.444-.122c-.57-.021-.936,0-1.037,0h-.021c-1.182.333-2.092,1.159-1.261,2.2a9.153,9.153,0,0,1,1.037-.041,10.3,10.3,0,0,1,3.721.509,7.494,7.494,0,0,1,3.924,2.887c2.521,3.537,1.972,8.6,1.972,8.6a42.323,42.323,0,0,1-1.138,7.136,26.882,26.882,0,0,1-5.043,10.614,15.79,15.79,0,0,1-7.613,5.493,4.524,4.524,0,0,0-.135.96A2.7,2.7,0,0,0,2328.3,1168.3Z" transform="translate(-2273.655 -1103.705)" fill="#d8453d"/>
              <path id="Path_2159" data-name="Path 2159" d="M2472.287,1323.39a4.3,4.3,0,0,0,1.536,1.447c.8.309,2.064,1.35,2.186,1.072s-.073-.763-.545-1.1-.617-.763-.5-1.018S2472.287,1323.39,2472.287,1323.39Z" transform="translate(-2381.412 -1249.063)" fill="#f2beb7"/>
            </g>
            <g id="Group_618" data-name="Group 618" transform="translate(28.951 35.019)">
              <path id="Path_2160" data-name="Path 2160" d="M2123.417,908.163c-11.857,0-21.469,10.338-21.469,23.087s21.469,33.128,21.469,33.128,21.468-20.379,21.468-33.128S2135.274,908.163,2123.417,908.163Zm0,34.383a12.65,12.65,0,1,1,12.65-12.65A12.63,12.63,0,0,1,2123.417,942.546Z" transform="translate(-2101.948 -908.163)" fill="#eb594c"/>
            </g>
          </g>
        </g>
      </g>
    </g>
  </g>
</svg>
