<svg xmlns="http://www.w3.org/2000/svg" width="375" height="376" viewBox="0 0 375 376">
  <g id="Group_40732" data-name="Group 40732" transform="translate(-2377 4014)">
    <g id="Group_40728" data-name="Group 40728" transform="translate(582)">
      <g id="Group_40725" data-name="Group 40725" transform="translate(1795 -4045)">
        <rect id="Rectangle_18982" data-name="Rectangle 18982" width="375" height="375" transform="translate(0 31)" fill="#126e82"/>
      </g>
      <path id="Rectangle_18985" data-name="Rectangle 18985" d="M10,0H365a10,10,0,0,1,10,10V22a0,0,0,0,1,0,0H0a0,0,0,0,1,0,0V10A10,10,0,0,1,10,0Z" transform="translate(1795 -3660)" fill="#fff"/>
    </g>
    <g id="Group_40730" data-name="Group 40730" transform="translate(2365.03 -4006.605)">
      <g id="OBJECTS" transform="translate(43.788 58.468)">
        <g id="Group_636" data-name="Group 636" transform="translate(0 0)">
          <g id="Group_568" data-name="Group 568" style="mix-blend-mode: soft-light;isolation: isolate">
            <path id="Path_1692" data-name="Path 1692" d="M313.219,101.22c1.939,2.222,2.2,5.57,1.267,8.369a18.883,18.883,0,0,1-4.992,7.226c-.749.737-1.526,1.45-2.322,2.128H201.64a34.933,34.933,0,0,1-8.911-11.793c-1.78-3.89-2.623-9.011.418-12.017,1.921-1.9,4.85-2.34,7.556-2.287a28.735,28.735,0,0,1,18.754,7.538A33.775,33.775,0,0,1,216.8,75.258c1.3-4.462,4.332-9.194,8.97-9.489,2.805-.183,5.422,1.356,7.679,3.041A46.156,46.156,0,0,1,247.575,86.25a26.974,26.974,0,0,1,5.947-19.414c2.829-3.442,6.825-6.259,11.281-6.365,6.607-.153,12.076,5.823,13.644,12.241s.189,13.143-1.2,19.6c2.758-4.662,5.687-9.512,10.3-12.359s11.428-2.917,14.8,1.32c2.44,3.065,2.434,7.526.99,11.169s-4.09,6.654-6.7,9.583a27.009,27.009,0,0,1,8.328-3.3C307.927,98.273,311.245,98.957,313.219,101.22Z" transform="translate(-165.826 -60.468)" fill="#20263f"/>
            <path id="Path_1693" data-name="Path 1693" d="M524.264,231.124A31.932,31.932,0,0,1,512.9,244.055H416.516a23.568,23.568,0,0,1-5.959-6.454c-3.725-6.124-3.348-15.206,2.458-19.42a14.811,14.811,0,0,1,10.143-2.352,36.806,36.806,0,0,1,10.2,2.929c-2.788-4.886-5.634-9.937-6.383-15.512s1.1-11.888,5.9-14.828c4.155-2.54,9.719-1.986,13.885.536s7.09,6.719,9.053,11.174c.13-5.133.283-10.4,2.21-15.159s6.035-8.982,11.139-9.536c3.678-.4,7.338,1.137,10.332,3.306a26.065,26.065,0,0,1,10.6,21.105,27.669,27.669,0,0,1,12.471-14.675c1.721-.955,3.725-1.744,5.64-1.249a6.045,6.045,0,0,1,4,4.414,15.224,15.224,0,0,1,.029,6.194,67.072,67.072,0,0,1-8.646,24.223c3.589-1.721,7.29-3.465,11.263-3.725s8.328,1.32,10.208,4.827C526.91,223.3,525.938,227.594,524.264,231.124Z" transform="translate(-227.351 -107.651)" fill="#20263f"/>
            <ellipse id="Ellipse_33" data-name="Ellipse 33" cx="155.682" cy="9.728" rx="155.682" ry="9.728" transform="translate(0 224.818)" fill="#20263f"/>
          </g>
          <g id="Group_586" data-name="Group 586" transform="translate(183.417 11.983)">
            <g id="Group_579" data-name="Group 579" transform="translate(59.617 33.676)">
              <path id="Path_1738" data-name="Path 1738" d="M575.179,195.231l-2.978,5.613a9.134,9.134,0,0,1-8.073,4.857h-7.265V137.94A11.2,11.2,0,0,1,567.857,147l8.219,42.2A9.125,9.125,0,0,1,575.179,195.231Z" transform="translate(-531.459 -137.94)" fill="#fda429"/>
              <path id="Path_1739" data-name="Path 1739" d="M539.165,137.94V205.7H513.759V137.94h25.406Z" transform="translate(-513.759 -137.94)" fill="#fd6700"/>
              <path id="Path_1740" data-name="Path 1740" d="M537.833,196.521l12.236,12.457a2.412,2.412,0,0,0,2.171-2.8s1.231-3.5.184-5.781S546.979,193.257,537.833,196.521Z" transform="translate(-523.644 -161.546)" fill="#49b3e2"/>
              <path id="Path_1741" data-name="Path 1741" d="M566.909,210.19q-.2-6.748-.394-13.5-.112-3.786-.222-7.572a.22.22,0,0,0-.44,0q.2,6.749.4,13.5t.394,13.5q.111,3.785.222,7.572c.008.283.448.284.44,0Q567.107,216.939,566.909,210.19Z" transform="translate(-535.15 -158.869)" fill="#2e3456"/>
              <path id="Path_1742" data-name="Path 1742" d="M578.745,214.112a.2.2,0,0,0-.017-.041.2.2,0,0,0-.206-.173l-9.4.2H569.1a.106.106,0,0,0-.014,0,.257.257,0,0,0-.066.015.236.236,0,0,0-.033.018.213.213,0,0,0-.043.033l-.008.01a.214.214,0,0,0-.056.132,32.078,32.078,0,0,0,.311,6.416c.276,1.838.629,3.971,2.164,5.214a4.045,4.045,0,0,0,4.857-.03,7.217,7.217,0,0,0,2.651-4.708A19.085,19.085,0,0,0,578.745,214.112Zm-.167,6.032a7.962,7.962,0,0,1-2.036,4.924,3.792,3.792,0,0,1-4.638.732c-1.561-1.022-1.94-3.062-2.219-4.768a31.477,31.477,0,0,1-.367-6.494l9.023-.2A19.391,19.391,0,0,1,578.578,220.144Z" transform="translate(-536.377 -169.131)" fill="#2e3456"/>
              <path id="Path_1743" data-name="Path 1743" d="M570.2,161.118c-5.361-3.443-8.24-9.436-10.139-15.306-.592-1.828-1.11-3.678-1.628-5.528a.22.22,0,0,0-.424.117,80.577,80.577,0,0,0,3.248,9.915,28.062,28.062,0,0,0,4.889,7.913,19.166,19.166,0,0,0,3.831,3.269C570.216,161.652,570.437,161.271,570.2,161.118Z" transform="translate(-531.925 -138.839)" fill="#2e3456"/>
            </g>
            <g id="Group_580" data-name="Group 580" transform="translate(38.625 104.998)">
              <path id="Path_1744" data-name="Path 1744" d="M566.2,396.666,577.555,409.4l-24.649,22c-4.182-4.688,5.819-21.538,5.819-21.538l-2.716-3.257C558.4,405.469,565.521,401.693,566.2,396.666Z" transform="translate(-508.423 -315.504)" fill="#2e3456"/>
              <path id="Path_1745" data-name="Path 1745" d="M511.181,430.938V448.03H478.142c0-6.281,18.681-12.2,18.681-12.2l-.295-3.4v0C498.319,433,504.063,434.345,511.181,430.938Z" transform="translate(-478.142 -329.577)" fill="#2e3456"/>
              <path id="Path_1746" data-name="Path 1746" d="M545.609,340.117c-.678,5.027-7.8,8.8-10.19,9.934-.493.233-.783.357-.783.357s-7.487-7.826-15.322-17.1c-8.592-10.172-17.6-22.092-17.571-27.325.048-9.9,0-31.282,0-31.691a24.4,24.4,0,0,0,3.161.378c7.716.41,21.924-11.977,26.026-15.718.713,13.214-5.651,47.217-5.651,47.217l20.371,33.589C545.64,339.879,545.627,340,545.609,340.117Z" transform="translate(-487.833 -258.955)" fill="#fff"/>
              <path id="Path_1747" data-name="Path 1747" d="M511.257,340.678l1.558,27c-7.117,3.407-12.862,2.065-14.653,1.492-.379-.119-.581-.207-.581-.207l-15.459-92.074a32.49,32.49,0,0,0,11.563,4.767c0,.409.048,21.788,0,31.691C493.659,318.586,502.665,330.506,511.257,340.678Z" transform="translate(-479.777 -266.321)" fill="#fff"/>
              <path id="Path_1748" data-name="Path 1748" d="M519.233,343.8c-2.893-2.81-5.792-5.625-8.424-8.686a45.258,45.258,0,0,1-6.472-9.558,30.351,30.351,0,0,1-2.02-5.307,29,29,0,0,1-.942-6.025,62.555,62.555,0,0,1,.032-6.386q.148-3.21.378-6.415.462-6.481,1.238-12.933.094-.785.194-1.57c.036-.28-.4-.278-.44,0q-.821,6.5-1.324,13.037-.248,3.239-.417,6.483c-.112,2.149-.208,4.3-.155,6.454a32.354,32.354,0,0,0,.7,6.233,29.323,29.323,0,0,0,1.753,5.311,42.109,42.109,0,0,0,6.108,9.732,106.669,106.669,0,0,0,8.376,8.871l1.1,1.069C519.125,344.307,519.436,344,519.233,343.8Z" transform="translate(-487.473 -270.352)" fill="#2e3456"/>
              <path id="Path_1749" data-name="Path 1749" d="M539.4,269.227l-2.046,15.711q-1.022,7.856-2.045,15.711-.575,4.419-1.151,8.837c-.036.28.4.278.44,0q1.023-7.856,2.045-15.711t2.045-15.711q.576-4.419,1.151-8.837C539.878,268.947,539.437,268.949,539.4,269.227Z" transform="translate(-501.144 -263.087)" fill="#2e3456"/>
              <path id="Path_1750" data-name="Path 1750" d="M558.776,377.656q-4.461-5.73-8.611-11.692-4.105-5.9-7.893-12.009-2.152-3.471-4.2-7.006a.22.22,0,0,0-.38.222q3.641,6.285,7.612,12.371t8.264,11.945q2.4,3.276,4.9,6.479C558.639,378.191,558.948,377.877,558.776,377.656Z" transform="translate(-502.583 -295.045)" fill="#2e3456"/>
              <path id="Path_1751" data-name="Path 1751" d="M523.888,397.272q-.626-5.611-1.252-11.223l-.706-6.32c-.031-.278-.472-.282-.44,0q.626,5.612,1.253,11.223T524,402.176l.706,6.32c.031.278.472.281.44,0Q524.515,402.883,523.888,397.272Z" transform="translate(-495.941 -308.463)" fill="#2e3456"/>
              <path id="Path_1752" data-name="Path 1752" d="M513.486,428.473c-.879-1.019-2.408-.322-3.361.189a9.917,9.917,0,0,0-3.825,3.682c-.157.268-.282.552-.437.82a.753.753,0,0,1-.121.156,7.564,7.564,0,0,0-5.405-4.137,2.1,2.1,0,0,0-1.732.4,1.512,1.512,0,0,0-.4,1.557c.348,1.252,1.841,1.835,2.945,2.224a10.013,10.013,0,0,0,4.233.6c.025,0,.045-.011.07-.014a.213.213,0,0,0,.108.035,10.2,10.2,0,0,0,7.063-2.485,3.53,3.53,0,0,0,1.1-1.449A1.629,1.629,0,0,0,513.486,428.473Zm-12.774,4.249a4.751,4.751,0,0,1-1.7-1.04,1.281,1.281,0,0,1-.15-1.739c.572-.568,1.5-.354,2.178-.142a7.128,7.128,0,0,1,1.8.859,7.293,7.293,0,0,1,2.514,2.854,3,3,0,0,1-.449.025A10.56,10.56,0,0,1,500.712,432.722Zm12.615-2.869a3.78,3.78,0,0,1-1.493,1.722,9.817,9.817,0,0,1-1.847,1.1,9.714,9.714,0,0,1-3.867.871,5.961,5.961,0,0,0,.435-.76,9.247,9.247,0,0,1,1.05-1.523,9.521,9.521,0,0,1,2.893-2.3,3.4,3.4,0,0,1,1.986-.551A1.072,1.072,0,0,1,513.327,429.853Z" transform="translate(-486.353 -328.35)" fill="#dce4f9"/>
              <path id="Path_1753" data-name="Path 1753" d="M509.883,457.765h-30.02a.22.22,0,0,0,0,.44h30.02A.22.22,0,0,0,509.883,457.765Z" transform="translate(-478.761 -340.593)" fill="#dce4f9"/>
              <path id="Path_1754" data-name="Path 1754" d="M577.5,417.48q-4.589,3.5-9.007,7.22-4.433,3.733-8.682,7.68-2.389,2.219-4.716,4.5c-.2.2.108.51.311.311q4.1-4.022,8.391-7.846,4.309-3.838,8.8-7.465,2.535-2.048,5.125-4.024C577.948,417.69,577.729,417.307,577.5,417.48Z" transform="translate(-509.715 -324.032)" fill="#dce4f9"/>
              <path id="Path_1755" data-name="Path 1755" d="M562.661,402.843c-.947-1.112-2.492-.393-3.424.318a9.446,9.446,0,0,0-3.653,7.1c-.025,0-.049,0-.074,0a14.741,14.741,0,0,1-2.254-.431,8.537,8.537,0,0,0-4.253.389,3.252,3.252,0,0,0-1.62,1.033,1.4,1.4,0,0,0-.067,1.635,1.99,1.99,0,0,0,1.83.68,11.992,11.992,0,0,0,2.361-.5,17.168,17.168,0,0,0,4.461-2.046.222.222,0,0,0,.037-.342.187.187,0,0,0,.006-.031,4.616,4.616,0,0,0,1.36-.5,16.332,16.332,0,0,0,1.818-1.148,15.427,15.427,0,0,0,3.121-2.89C563.022,405.208,563.51,403.841,562.661,402.843Zm-13.174,10.249c-.647.1-1.627.111-1.916-.634-.279-.722.44-1.308,1.006-1.582a7.438,7.438,0,0,1,2.151-.628,8.025,8.025,0,0,1,2.316,0c.762.113,1.492.4,2.261.453a2.816,2.816,0,0,0,.284,0,.208.208,0,0,0,.01.034,16.726,16.726,0,0,1-3.928,1.828A15.355,15.355,0,0,1,549.487,413.092Zm11.507-6.187a17.247,17.247,0,0,1-3.426,2.633,5.279,5.279,0,0,1-1.544.676,9.029,9.029,0,0,1,3.085-6.386,4.416,4.416,0,0,1,1.831-1.077,1.349,1.349,0,0,1,1.61.747C563.088,404.825,561.848,406.06,560.994,406.905Z" transform="translate(-506.451 -317.804)" fill="#dce4f9"/>
            </g>
            <g id="Group_581" data-name="Group 581" transform="translate(33.105)">
              <path id="Path_1756" data-name="Path 1756" d="M499.107,87.928c4.8,4.151,7.082,9.292,5.348,13.346-2.5,5.841-12.377,7.214-22.074,3.072s-15.525-12.241-13.029-18.082c2.135-5,9.688-6.726,17.9-4.52a31.349,31.349,0,0,1,4.173,1.448A29.392,29.392,0,0,1,499.107,87.928Z" transform="translate(-468.775 -80.801)" fill="#fda429"/>
              <path id="Path_1757" data-name="Path 1757" d="M507.474,83a9.951,9.951,0,0,1,4.507,5.339,29.388,29.388,0,0,0-7.681-4.736,31.343,31.343,0,0,0-4.173-1.448A9.962,9.962,0,0,1,507.474,83Z" transform="translate(-481.65 -81.215)" fill="#fda429"/>
              <path id="Path_1758" data-name="Path 1758" d="M505.25,119.94l-10.15,8.984-1.914,9.869L490.2,129l-1.3-3.037c0-.357.039-3.051.044-3.407v-.093s-.075.022-.212.071a8.946,8.946,0,0,1-7.875-7.518l-1.752-11.563a8.684,8.684,0,0,0,4.327-.1,21.8,21.8,0,0,0,5-2.231,30.285,30.285,0,0,1,4.925-2.4,5.52,5.52,0,0,0,3.666,4.124l.027.163a4.471,4.471,0,0,1,.656-1.3c.057-.075.118-.15.184-.22a2.052,2.052,0,0,1,1.628-.691,2.075,2.075,0,0,1,1.339.748,4.378,4.378,0,0,1,.735,1.378,7.686,7.686,0,0,1,.365,4.221,5.48,5.48,0,0,1-1.281,2.514l.018.017c1.008,2.271,2.289,5.163,3.433,7.751C504.528,118.312,504.907,119.161,505.25,119.94Z" transform="translate(-473.02 -88.159)" fill="#ffbc85"/>
              <path id="Path_1759" data-name="Path 1759" d="M505.361,125.576a8.627,8.627,0,0,1-9.608,10.353c.009-.779.017-1.562.031-2.342a8.9,8.9,0,0,0,9.578-8.011Z" transform="translate(-479.853 -99.187)" fill="#2e3456"/>
              <path id="Path_1760" data-name="Path 1760" d="M511.706,88.325q-1.135-.931-2.354-1.756a31.688,31.688,0,0,0-9.279-4.269.221.221,0,0,1,.115-.427c.964.268,1.914.576,2.848.933a32.257,32.257,0,0,1,8.984,5.212C512.239,88.2,511.921,88.506,511.706,88.325Z" transform="translate(-481.562 -81.238)" fill="#2e3456"/>
              <path id="Path_1761" data-name="Path 1761" d="M493,93.349a8.738,8.738,0,0,1,1.549,5.067,4.475,4.475,0,0,0-.656,1.3l-.027-.163a5.521,5.521,0,0,1-3.666-4.124,30.288,30.288,0,0,0-4.925,2.4,21.8,21.8,0,0,1-5,2.231,8.684,8.684,0,0,1-4.327.1,6.067,6.067,0,0,1-1.048-.374,6.131,6.131,0,0,1-3.239-3.671,4.821,4.821,0,0,1-.119-2.689,3.465,3.465,0,0,1,1.58-2.135,5.531,5.531,0,0,1,3.086-.449c3.428.22,6.893.977,10.264.313a8.512,8.512,0,0,1,3.548-.357,3.126,3.126,0,0,1,.862.343A6.1,6.1,0,0,1,492.9,93.2C492.936,93.253,492.967,93.3,493,93.349Z" transform="translate(-469.853 -84.871)" fill="#2e3456"/>
              <path id="Path_1762" data-name="Path 1762" d="M490.739,118.153c-.163,1.75-1.122,3.547-2.662,3.7a1.6,1.6,0,0,1-1.706-.909c-.322-.856.469-1.429.843-2a4.254,4.254,0,0,0,.534-1.213c.039-.148.07-.305.1-.459a3.546,3.546,0,0,1,.988-2.561c.6-.442,1.261-.134,1.6.56a4.023,4.023,0,0,1,.3,1.344A8.2,8.2,0,0,1,490.739,118.153Z" transform="translate(-475.97 -94.64)" fill="#2e333f" opacity="0.8" style="mix-blend-mode: overlay;isolation: isolate"/>
              <circle id="Ellipse_37" data-name="Ellipse 37" cx="2.462" cy="2.462" r="2.462" transform="translate(18.302 21.345)" fill="#2e333f" opacity="0.8" style="mix-blend-mode: overlay;isolation: isolate"/>
              <path id="Path_1763" data-name="Path 1763" d="M483.082,111.7a.777.777,0,0,0-1-.4,11.858,11.858,0,0,0-1.977.922.831.831,0,0,0-.4.408.759.759,0,0,0,.414.991.736.736,0,0,0,.59-.005,11.82,11.82,0,0,1,1.977-.922.76.76,0,0,0,.4-1Z" transform="translate(-473.241 -93.306)" fill="#2e3456"/>
              <path id="Path_1764" data-name="Path 1764" d="M497.748,108.824a18.637,18.637,0,0,0-2.567-.209.831.831,0,0,0-.569.157.759.759,0,0,0-.126,1.066.732.732,0,0,0,.5.282,18.644,18.644,0,0,1,2.568.209.759.759,0,1,0,.2-1.506Z" transform="translate(-479.267 -92.222)" fill="#2e3456"/>
              <ellipse id="Ellipse_38" data-name="Ellipse 38" cx="1.457" cy="1.513" rx="1.457" ry="1.513" transform="translate(15.382 18.828) rotate(-7.984)" fill="#2e3456"/>
              <ellipse id="Ellipse_39" data-name="Ellipse 39" cx="1.457" cy="1.513" rx="1.457" ry="1.513" transform="translate(7.368 20.225) rotate(-7.984)" fill="#2e3456"/>
              <path id="Path_1765" data-name="Path 1765" d="M511.92,105.906a1.6,1.6,0,0,1,1.22-1.422,1.033,1.033,0,0,1,1.23,1.077c-.036.3-.514.3-.478,0a.538.538,0,0,0-.434-.6.843.843,0,0,0-.78.325,1.516,1.516,0,0,0-.307.883.764.764,0,0,0,.421.768,1.877,1.877,0,0,1,.3,2.92.239.239,0,0,1-.337-.339,1.388,1.388,0,0,0,.047-1.967c-.233-.24-.57-.347-.747-.645A1.5,1.5,0,0,1,511.92,105.906Z" transform="translate(-486.48 -90.52)" fill="#2e3456"/>
              <path id="Path_1766" data-name="Path 1766" d="M492.862,126.712a.623.623,0,0,1,.629-.579l-.04,0,.062-.007c.044-.006.087-.012.13-.019.078-.014.155-.029.231-.048s.169-.045.252-.072l.095-.032.024-.011a4.313,4.313,0,0,0,.468-.238c.068-.041.132-.086.2-.128l.007,0,.015-.012c.035-.028.07-.054.1-.082a3.7,3.7,0,0,0,.364-.342l.071-.078.058-.07.042-.056c.026-.035.051-.071.076-.107a4.1,4.1,0,0,0,.252-.43l.009-.018a.032.032,0,0,1,0-.009c.015-.041.034-.081.05-.121.031-.083.058-.166.083-.25a.6.6,0,0,1,1.154.359,4.28,4.28,0,0,1-3.758,2.979A.605.605,0,0,1,492.862,126.712Z" transform="translate(-478.665 -98.365)" fill="#2e3456"/>
            </g>
            <g id="Group_585" data-name="Group 585" transform="translate(0 29.234)">
              <path id="Path_1767" data-name="Path 1767" d="M520.882,135.059l-8.931,11.136a6.4,6.4,0,0,0-5.713-4.261l10.15-8.984c-.343-.779-.721-1.628-1.113-2.518C519.337,129.97,520.882,135.059,520.882,135.059Z" transform="translate(-451.054 -130.403)" fill="#49b3e2"/>
              <path id="Path_1768" data-name="Path 1768" d="M521.893,188.719,523,208.355s-.41.391-1.141,1.056c-4.1,3.741-18.311,16.127-26.026,15.718a24.43,24.43,0,0,1-3.161-.378,32.485,32.485,0,0,1-11.563-4.767v0c-.938-.617-1.457-1.034-1.457-1.034l.642-31.331s-1.439-36.062,0-41.3c1.29-4.705,7.448-7.1,8.667-7.527-4.793,2.535-1.144,9-1.144,9,.858-2.447,2.61-2.531,2.61-2.531l2.98,9.789,1.914-9.869a6.4,6.4,0,0,1,5.713,4.261l8.931-11.136s8.565.489,13.337,4.771,4.005,32.031,4.283,37.749S521.893,188.719,521.893,188.719Z" transform="translate(-440.136 -133.647)" fill="#2c92c7"/>
              <path id="Path_1769" data-name="Path 1769" d="M536.9,209.219l-2.692,2.264,12.542,17.8v-2.814Z" transform="translate(-462.541 -162.767)" fill="#2e3456"/>
              <path id="Path_1770" data-name="Path 1770" d="M524.62,171.037s.23-29.923,11.022-30.5c0,0-2.034-2.177-7.14-1.908,0,0-8.531,3.409-8.185,31.349Z" transform="translate(-456.831 -133.771)" fill="#2e3456"/>
              <path id="Path_1771" data-name="Path 1771" d="M495.188,145.6s-1.752.084-2.61,2.531c0,0-3.649-6.462,1.144-9,.071.009.141.017.211.022l-.013.858c0,.493-.013.991-.017,1.483,0,.357-.009.709-.014,1.066Z" transform="translate(-444.899 -133.987)" fill="#49b3e2"/>
              <path id="Path_1772" data-name="Path 1772" d="M500.655,200.738q-.42,8.915-.839,17.83t-.839,17.829l-.47,9.984c-.014.283.427.282.44,0q.42-8.915.839-17.829t.839-17.83l.47-9.984C501.109,200.455,500.669,200.455,500.655,200.738Z" transform="translate(-447.879 -159.197)" fill="#2e3456"/>
              <path id="Path_1773" data-name="Path 1773" d="M551.928,205.309l-7.674-5.662c-.228-.168-.448.214-.222.38l7.673,5.662C551.934,205.858,552.153,205.476,551.928,205.309Z" transform="translate(-466.534 -158.819)" fill="#2e3456"/>
              <path id="Path_1774" data-name="Path 1774" d="M554.224,202.413l-6.534-3.246c-.253-.126-.476.254-.222.38L554,202.793C554.255,202.918,554.478,202.539,554.224,202.413Z" transform="translate(-467.938 -158.629)" fill="#2e3456"/>
              <g id="Group_582" data-name="Group 582" transform="translate(0 12.94)">
                <path id="Path_1775" data-name="Path 1775" d="M475.378,195.069h-49.9l-6.067-21.326L413.536,153.1h49.9Z" transform="translate(-412.987 -152.665)" fill="#acd1e2"/>
                <path id="Path_1776" data-name="Path 1776" d="M449.969,164.064c.747,1.453,1.8,3.068,1.227,4.811a2.23,2.23,0,0,1-1.369,1.479,8.406,8.406,0,0,1-2.369.167c-1.723.083-3.226,1.149-4.686,2.033a7.764,7.764,0,0,1-4.608,1.475,3.942,3.942,0,0,1-3.052-2.139,18.437,18.437,0,0,1-1.308-3.6,7.388,7.388,0,0,0-1.662-3.236c-1.13-1.083-2.775-.959-3.978-1.884s-1.512-2.623-1.463-4.138c.065-1.892.622-3.9-.215-5.687-.041-.084-.081-.163-.126-.246h26.331c.337,2.54-1.963,4.49-2.966,6.55a4.5,4.5,0,0,0-.492,1.826A5.366,5.366,0,0,0,449.969,164.064Z" transform="translate(-418.253 -152.665)" fill="#2c92c7"/>
                <path id="Path_1777" data-name="Path 1777" d="M490.94,191.706a2.2,2.2,0,0,0,.727-1.924,1.879,1.879,0,0,0-1.268-1.351,3.383,3.383,0,0,0-2.194.132c-.793.264-1.561.612-2.337.929-.8.33-1.6.66-2.409.985-1.02.418-2.577,1.105-3.463.022-.865-1.061-.158-2.667.5-3.618,1.528-2.223,4.043-3.213,6.286-4.318,2.142-1.061,4.641-2.627,5.258-5.291a8.628,8.628,0,0,0-.792-5.044,5.318,5.318,0,0,0-.967-1.866,1.261,1.261,0,0,0-1.76.035c-1.15.951-1.015,2.857-1.333,4.235a4.96,4.96,0,0,1-2,3.288,2.589,2.589,0,0,1-2.95-.171c-.979-.863-.776-2.293-.553-3.468a6.418,6.418,0,0,0,.187-2.043,2.771,2.771,0,0,0-.874-1.6c-.89-.885-1.991-1.488-2.5-2.747-1.235-3.064.878-5.99,2.129-8.57a7.1,7.1,0,0,0,.845-4.842,3.858,3.858,0,0,0-.7-1.373h9.184L501.9,195.069H485.153a2.659,2.659,0,0,1,.207-.387c.853-1.312,2.292-1.585,3.629-1.972A4.254,4.254,0,0,0,490.94,191.706Z" transform="translate(-439.512 -152.665)" fill="#2c92c7"/>
                <path id="Path_1778" data-name="Path 1778" d="M450.9,204.7a6.917,6.917,0,0,1-1.8,4.023c-.2.225-.407.436-.626.638H429.565L423.5,188.04c.069-.035.134-.07.207-.1.163-.075.26.093.236.242a3.278,3.278,0,0,1,3.23,1.33c1.065,1.228,1.63,2.874,2.779,4.019a3.131,3.131,0,0,0,1.934.994c.772.053,1.536-.207,2.308-.114,1.516.176,2.085,1.734,2.3,3.17a8.044,8.044,0,0,0,.585,2.429,4.341,4.341,0,0,0,1.243,1.51,3.847,3.847,0,0,0,3.673.625c1.3-.462,2.393-1.422,3.674-1.937a3.576,3.576,0,0,1,3.921.682A4.916,4.916,0,0,1,450.9,204.7Z" transform="translate(-417.078 -166.962)" fill="#2c92c7"/>
                <path id="Path_1779" data-name="Path 1779" d="M467.519,193.152a4.571,4.571,0,0,1-.666,4.446,3.047,3.047,0,0,1-1.877,1.118,4.392,4.392,0,0,1-2.662-.6c-1.26-.66-2.418-1.7-3.763-2.073-.041.009-.081,0-.126.013-.484.093-.955.233-1.443.3a2.129,2.129,0,0,1-2.068-.766,1.653,1.653,0,0,1-.268-1.07,2.315,2.315,0,0,1,.239-.986c.065-.154.134-.308.212-.449a7.659,7.659,0,0,1,3.669-3.385,6.841,6.841,0,0,1,5.295,0A6.2,6.2,0,0,1,467.519,193.152Z" transform="translate(-429.866 -167.469)" fill="#2c92c7"/>
                <path id="Path_1780" data-name="Path 1780" d="M475.545,195.2H424.794l-.088-.311-12.1-42.533h50.751Zm-50.152-.88h49.051l-11.688-41.082H413.706Z" transform="translate(-412.605 -152.359)" fill="#fff"/>
                <path id="Path_1781" data-name="Path 1781" d="M442.032,194.945l-4.716-15.684L432.6,163.577l-2.659-8.842a.22.22,0,0,0-.424.117l4.716,15.685,4.717,15.684q1.329,4.421,2.659,8.842A.22.22,0,0,0,442.032,194.945Z" transform="translate(-419.545 -153.271)" fill="#2e3456"/>
                <path id="Path_1782" data-name="Path 1782" d="M475.866,178.776q-.2-7.835-.4-15.67l-.224-8.8a.22.22,0,0,0-.44,0q.2,7.835.4,15.67t.4,15.67q.111,4.4.224,8.8a.22.22,0,0,0,.44,0Q476.066,186.611,475.866,178.776Z" transform="translate(-438.145 -153.072)" fill="#2e3456"/>
                <path id="Path_1783" data-name="Path 1783" d="M458.457,177.925l-6.218,9.666-1.777,2.762c-.154.239.227.46.38.222l6.218-9.666,1.776-2.762C458.991,177.908,458.61,177.687,458.457,177.925Z" transform="translate(-428.135 -162.815)" fill="#2e3456"/>
                <path id="Path_1784" data-name="Path 1784" d="M462.588,188.883l-5.672,5.667a.22.22,0,0,0,.311.311l5.673-5.667A.22.22,0,0,0,462.588,188.883Z" transform="translate(-430.774 -167.33)" fill="#2e3456"/>
              </g>
              <g id="Group_583" data-name="Group 583" transform="translate(46.638 25.951)">
                <path id="Path_1785" data-name="Path 1785" d="M499.133,187.179c-1.567.709-5.445,2.337-5.4,1.132.062-1.462,4.217-3.8,4.477-3.948-.3.114-6.123,2.311-5.986.523s4.956-3.622,5.286-3.75c-.343.039-5.731.7-5.775-.7-.04-1.448,4.894-2.817,4.894-2.817s-4.137-1.223-4.159-2.161,6.915-1.184,8.812-.937,4.731,6.853,4.731,6.853L518.9,187.9l12.236,12.457s-2.98,6.347-7.179,5.33-16.889-13.3-16.889-13.3C501.65,191.145,499.757,188.517,499.133,187.179Z" transform="translate(-491.738 -174.435)" fill="#ffbc85"/>
                <path id="Path_1786" data-name="Path 1786" d="M504.94,188.732l-2.433,1.253c-.252.13-.03.509.222.38l2.433-1.252C505.414,188.983,505.192,188.6,504.94,188.732Z" transform="translate(-496.114 -180.295)" fill="#2e3456"/>
                <path id="Path_1787" data-name="Path 1787" d="M503.068,184.766l-2.145.506c-.275.065-.159.49.117.424l2.145-.506C503.461,185.126,503.345,184.7,503.068,184.766Z" transform="translate(-495.445 -178.674)" fill="#2e3456"/>
                <path id="Path_1788" data-name="Path 1788" d="M502.775,179.63l-2.721-.121c-.283-.012-.283.428,0,.44l2.721.121C503.058,180.083,503.058,179.643,502.775,179.63Z" transform="translate(-495.065 -176.518)" fill="#2e3456"/>
              </g>
              <g id="Group_584" data-name="Group 584" transform="translate(1.464 29.667)">
                <path id="Path_1789" data-name="Path 1789" d="M424.233,188.006a3.364,3.364,0,0,1,.634.647,1.468,1.468,0,0,1,.26,1.267,2.031,2.031,0,0,1-.823.934,11.445,11.445,0,0,1-3.266,1.6,3.586,3.586,0,0,1-2.319.092,2.1,2.1,0,0,1-1.136-2.865,2.385,2.385,0,0,1-.766-2.98l-.018-.009a.622.622,0,0,1-.642-.128,1.6,1.6,0,0,1-.4-.563,3.85,3.85,0,0,1-.4-1.237,2.187,2.187,0,0,1,.044-.792l-.031-.009a2.036,2.036,0,0,1,.246-2.4,2.723,2.723,0,0,1,2.363-.8,4.134,4.134,0,0,1,2.271,1.158,7.97,7.97,0,0,1,1.285,1.633,2.6,2.6,0,0,1,1.118.77,2.566,2.566,0,0,1,.6,1.457,2.588,2.588,0,0,1,.581.4,1.7,1.7,0,0,1,.572.995A1.173,1.173,0,0,1,424.233,188.006Z" transform="translate(-415.088 -180.74)" fill="#ffbc85"/>
                <path id="Path_1790" data-name="Path 1790" d="M425.581,193.032a9.393,9.393,0,0,0-6.649,1.033.22.22,0,0,0,.222.38,8.929,8.929,0,0,1,6.31-.988C425.741,193.516,425.859,193.092,425.581,193.032Z" transform="translate(-416.623 -185.701)" fill="#2e3456"/>
                <path id="Path_1791" data-name="Path 1791" d="M424.086,189.141a8.39,8.39,0,0,0-6.386.293c-.257.12-.034.5.222.38a7.946,7.946,0,0,1,6.047-.249C424.236,189.663,424.351,189.237,424.086,189.141Z" transform="translate(-416.114 -183.986)" fill="#2e3456"/>
                <path id="Path_1792" data-name="Path 1792" d="M421.613,185.245a8.72,8.72,0,0,0-5.719.24c-.26.1-.147.529.117.424a8.329,8.329,0,0,1,5.485-.24A.22.22,0,0,0,421.613,185.245Z" transform="translate(-415.358 -182.438)" fill="#2e3456"/>
              </g>
            </g>
          </g>
          <g id="Group_593" data-name="Group 593" transform="translate(29.008 19.221)">
            <g id="Group_587" data-name="Group 587" transform="translate(32.247 86.25)">
              <path id="Path_1793" data-name="Path 1793" d="M385.807,447.99H368.676l-2.527-10.934-1.8,10.934h-2.61v-18.4h12.236l.247,4.78C383.28,437.056,385.807,447.99,385.807,447.99Z" transform="translate(-296.215 -317.511)" fill="#2e3456"/>
              <path id="Path_1794" data-name="Path 1794" d="M336.983,239.425c2.029,16.744,5.507,58.317-1.127,112.075H322.744l-4.772-62.336s-6.444,20.1-8.548,24.6-30.037,33.69-30.037,33.69l-.511-.4-9.635-7.6-.339-.264,27.044-41.767s-6.792-46.345,10.643-58C306.59,239.425,323.6,244.2,336.983,239.425Z" transform="translate(-258.092 -239.425)" fill="#2c92c7"/>
              <path id="Path_1795" data-name="Path 1795" d="M271.345,416.742l-2.5,3.381c5.295,7.822.317,17.88.317,17.88l-13.245-10.863,4.974-10.058-8.319,7.315-2.016-1.655,11.15-13.6Z" transform="translate(-250.56 -309.118)" fill="#2e3456"/>
              <path id="Path_1796" data-name="Path 1796" d="M360.976,280.909l-7.024,19.4-1.98,5.471c-.1.267.328.382.424.117q3.512-9.7,7.024-19.4l1.98-5.471C361.5,280.759,361.072,280.644,360.976,280.909Z" transform="translate(-292.197 -256.398)" fill="#2e3456"/>
              <path id="Path_1797" data-name="Path 1797" d="M378.093,270.4l-9.309,5.184c-.247.138-.026.518.222.38l9.309-5.184C378.562,270.642,378.341,270.261,378.093,270.4Z" transform="translate(-299.062 -252.132)" fill="#2e3456"/>
              <path id="Path_1798" data-name="Path 1798" d="M377.595,277.683,370,279.419c-.276.063-.159.488.117.424l7.6-1.737C377.988,278.044,377.871,277.619,377.595,277.683Z" transform="translate(-299.541 -255.132)" fill="#2e3456"/>
              <path id="Path_1799" data-name="Path 1799" d="M329.677,240.635a22.969,22.969,0,0,0-4.652,8.954,85.553,85.553,0,0,0-2.315,11.011q-.933,5.9-1.326,11.86-.4,6.009-.237,12.038t.873,12.008q.088.74.186,1.48c.036.277.477.28.44,0q-.774-5.917-1.007-11.887-.229-5.935.081-11.875.312-5.956,1.166-11.869a103.141,103.141,0,0,1,2.155-11.18,25.6,25.6,0,0,1,4.112-9.226c.265-.346.545-.679.836-1C330.177,240.736,329.866,240.423,329.677,240.635Z" transform="translate(-279.526 -239.893)" fill="#2e3456"/>
              <path id="Path_1800" data-name="Path 1800" d="M301.463,342.45l-10.637,15.215L280.251,372.79l-5.98,8.552c-.163.233.219.453.38.222l10.637-15.215,10.574-15.125,5.98-8.553C302.006,342.44,301.625,342.22,301.463,342.45Z" transform="translate(-260.28 -281.69)" fill="#2e3456"/>
            </g>
            <g id="Group_590" data-name="Group 590" transform="translate(0 17.042)">
              <path id="Path_1801" data-name="Path 1801" d="M284.921,268.635c.383,1.263-2.17,2.971-2.685,4.186l-.075.071c-1.232-1.312-.118-2.808-1.593-3.843l.009-.048a2.9,2.9,0,0,0-3.658.612,3.457,3.457,0,0,0-.414,3.6l-.013.339a7.761,7.761,0,0,1-1.858-.211,2.723,2.723,0,0,1-1.589-1.074,7.829,7.829,0,0,1-.616-1.8.98.98,0,0,0-.061-.163,20.208,20.208,0,0,0-.991-1.976,4.356,4.356,0,0,1-.5-1.571,5.045,5.045,0,0,1,1.29-3.311,25.91,25.91,0,0,1,4.961-4.824q.6-1.525,1.079-3.094a19.647,19.647,0,0,0,7.606,3.654q-.9,1.544-1.818,3.089a22.031,22.031,0,0,1,.431,5.212A5.7,5.7,0,0,1,284.921,268.635Z" transform="translate(-226.651 -176.829)" fill="#ffbc85"/>
              <path id="Path_1802" data-name="Path 1802" d="M362.343,228.215c.207,1.325.528,3.552.9,6.607-13.381,4.772-30.393,0-30.393,0l.563-5.357C339.195,230.385,350.917,231.516,362.343,228.215Z" transform="translate(-252.103 -165.614)" fill="#ffbc85"/>
              <path id="Path_1803" data-name="Path 1803" d="M351.791,156.139a14.117,14.117,0,0,1,1.426.167s7.1,20.477,5.225,26.107-14.847,4.811-14.847,4.811l.893,9.626c-1.113.414-2.236.784-3.358,1.105-11.427,3.3-23.149,2.17-28.932,1.25-2.324-.37-3.689-.7-3.689-.7V188.055h0l-16.3,29.923a12.9,12.9,0,0,1-2.153-.273,19.645,19.645,0,0,1-7.606-3.654A15.887,15.887,0,0,1,281.189,213s14.723-44.54,20.639-51.424,12.069-7.056,12.069-7.056,10.859,8.007,13.874,6.963a2.979,2.979,0,0,0,2.1-3.794l-.717-2.117c9.134-.766,16.48,14.274,16.48,14.274l-.651-12.157c.1-.093.2-.176.308-.26C347.112,156.047,350.048,156.012,351.791,156.139Z" transform="translate(-230.89 -135.354)" fill="#fff"/>
              <path id="Path_1804" data-name="Path 1804" d="M335.021,192.52l-6.892,10.436c-.157.237.225.458.38.222l6.892-10.436C335.557,192.505,335.177,192.284,335.021,192.52Z" transform="translate(-250.15 -150.915)" fill="#2e3456"/>
              <path id="Path_1805" data-name="Path 1805" d="M336.782,200.528l-5.271,4.883c-.209.193.1.5.311.311l5.272-4.883C337.3,200.646,336.99,200.336,336.782,200.528Z" transform="translate(-251.526 -154.22)" fill="#2e3456"/>
              <path id="Path_1806" data-name="Path 1806" d="M381.03,184.648a21.461,21.461,0,0,0-3.348-8.084,20.785,20.785,0,0,0-3.166-3.609c-.21-.19-.522.121-.311.311a20.405,20.405,0,0,1,4.9,6.7,26.243,26.243,0,0,1,2.036,8.9c.133,1.745.175,3.494.215,5.242a.22.22,0,0,0,.44,0A55.312,55.312,0,0,0,381.03,184.648Z" transform="translate(-269.057 -142.898)" fill="#2e3456"/>
              <path id="Path_1807" data-name="Path 1807" d="M390.291,181.969q-.113,3-.226,6c-.011.283.43.283.44,0q.113-3,.226-6C390.741,181.686,390.3,181.686,390.291,181.969Z" transform="translate(-275.598 -146.537)" fill="#2e3456"/>
              <path id="Path_1808" data-name="Path 1808" d="M388.4,182.029q-.445,1.923-.888,3.847c-.064.276.361.394.424.117q.445-1.924.888-3.847C388.891,181.87,388.466,181.753,388.4,182.029Z" transform="translate(-274.548 -146.584)" fill="#2e3456"/>
              <g id="Group_588" data-name="Group 588" transform="translate(99.186)">
                <path id="Path_1809" data-name="Path 1809" d="M375.781,129.283l-.154,3.984-.057,1.466a1.529,1.529,0,0,1-2.39,1.2l-5.119-3.486-3.253-2.214a1.508,1.508,0,0,1-.669-1.32l.207-5.445a1.526,1.526,0,0,1,2.386-1.2l2.052,1.4,6.325,4.3A1.544,1.544,0,0,1,375.781,129.283Z" transform="translate(-364.138 -121.998)" fill="#d3d9ef"/>
                <path id="Path_1810" data-name="Path 1810" d="M388.586,143.3c-1.743-.128-4.679-.093-6.5,1.294-.268-.924-.546-1.853-.823-2.777a15.23,15.23,0,0,1-3.623-1.4,6.241,6.241,0,0,1-2.6-2.7,29.369,29.369,0,0,1-3.926-4.147,1.281,1.281,0,0,1-.317-.607l5.119,3.486a1.529,1.529,0,0,0,2.39-1.2l.057-1.466a35.562,35.562,0,0,1-1.928-3.187,10.9,10.9,0,0,1-3.4.268c-.44-.035-.981-.2-1.038-.629a.952.952,0,0,1,.361-.735,5.337,5.337,0,0,1,2.346-1.373,5.859,5.859,0,0,1-3.037-.542.636.636,0,0,1-.365-.576.6.6,0,0,1,.291-.515,2.788,2.788,0,0,1,2.152-.348,7.335,7.335,0,0,1-2.038-1.7,1.936,1.936,0,0,1-.189-.268.664.664,0,0,1-.071-.647c.172-.321.634-.317.986-.233a9.136,9.136,0,0,1,3.367,1.778,33.043,33.043,0,0,1,7.51,8.359A82.167,82.167,0,0,1,388.586,143.3Z" transform="translate(-366.871 -122.51)" fill="#ffbc85"/>
                <path id="Path_1811" data-name="Path 1811" d="M381.682,132.994a9.649,9.649,0,0,0-3.9-2.136.22.22,0,0,0-.117.424,9.168,9.168,0,0,1,3.705,2.023C381.581,133.494,381.893,133.183,381.682,132.994Z" transform="translate(-369.629 -125.632)" fill="#2e3456"/>
                <path id="Path_1812" data-name="Path 1812" d="M381.19,129.651a14.275,14.275,0,0,0-4.416-2.239c-.271-.083-.387.342-.117.424a13.929,13.929,0,0,1,4.31,2.195C381.194,130.2,381.414,129.819,381.19,129.651Z" transform="translate(-369.216 -124.216)" fill="#2e3456"/>
              </g>
              <g id="Group_589" data-name="Group 589" transform="translate(0 91.498)">
                <path id="Path_1813" data-name="Path 1813" d="M264.727,279.221c-3.433,8.751-7.659,19.438-10.912,27.735-.392.99-1.879.273-1.492-.717,3.411-8.7,7.892-20.028,11.413-28.994A20.2,20.2,0,0,1,264.727,279.221Z" transform="translate(-219.011 -277.245)" fill="#2e3456"/>
                <circle id="Ellipse_40" data-name="Ellipse 40" cx="3.218" cy="3.218" r="3.218" transform="translate(49.283 0.155)" fill="#fd6700"/>
                <path id="Path_1814" data-name="Path 1814" d="M275.651,284.491q-5.4,13.749-10.793,27.5c-.388.987,1.1,1.706,1.492.714q5.4-13.749,10.793-27.5C277.53,284.218,276.04,283.5,275.651,284.491Z" transform="translate(-224.158 -280.025)" fill="#2e3456"/>
                <ellipse id="Ellipse_41" data-name="Ellipse 41" cx="6.722" cy="4.58" rx="6.722" ry="4.58" transform="translate(10.446 106.511) rotate(-70.312)" fill="#2e3456"/>
                <rect id="Rectangle_670" data-name="Rectangle 670" width="10.798" height="2.071" transform="translate(12.537 98.234) rotate(19.688)" fill="#dce4f9"/>
                <path id="Path_1815" data-name="Path 1815" d="M258.953,342.059l-19.878,55.557a6.817,6.817,0,0,1-8.689,4.107l-1.417-.506,25.877-67.847A6.817,6.817,0,0,1,258.953,342.059Z" transform="translate(-209.447 -300.292)" fill="#2e3456"/>
                <path id="Path_1816" data-name="Path 1816" d="M241.245,330.512l-25.877,67.847-6.976-2.5a18.422,18.422,0,0,1-2.6-1.162,16.017,16.017,0,0,1-1.734-1.061,19,19,0,0,1-7.113-21.977l11.7-32.709a19,19,0,0,1,19.438-12.479,18.511,18.511,0,0,1,2.016.282,18.262,18.262,0,0,1,2.746.753Z" transform="translate(-195.846 -297.433)" fill="#fda429"/>
                <path id="Path_1817" data-name="Path 1817" d="M235.828,326.8l-24.311,67.943a16,16,0,0,1-1.734-1.061l24.028-67.164A18.5,18.5,0,0,1,235.828,326.8Z" transform="translate(-201.569 -297.48)" fill="#dce4f9"/>
              </g>
            </g>
            <g id="Group_591" data-name="Group 591" transform="translate(61.826 36.875)">
              <path id="Path_1818" data-name="Path 1818" d="M353.805,155.648l3.279.489L343.7,209.916h-4.727Z" transform="translate(-316.445 -155.648)" fill="#fd6700"/>
              <path id="Path_1819" data-name="Path 1819" d="M329.337,245.96l-4.965,21.546a9.54,9.54,0,0,1-9.3,7.395h-4.784a9.517,9.517,0,0,1-9.512-10.239c.55-6.721,2.905-14.934,10.568-18.7Z" transform="translate(-300.748 -192.733)" fill="#fd6700"/>
              <path id="Path_1820" data-name="Path 1820" d="M323.926,211.418l-5.194,20.358h3.695l1.5-9.913Z" transform="translate(-308.133 -178.549)" fill="#fd6700"/>
              <path id="Path_1821" data-name="Path 1821" d="M333.733,246.858l-5.7,20.32-1.6,5.715a.22.22,0,0,0,.424.117l5.7-20.32q.8-2.857,1.6-5.715A.221.221,0,0,0,333.733,246.858Z" transform="translate(-311.291 -193.038)" fill="#2e3456"/>
              <path id="Path_1822" data-name="Path 1822" d="M325.477,253.93a24.85,24.85,0,0,1-6.376,5.686c-1.2.743-2.624,1.508-4.077,1.1a4.417,4.417,0,0,1-2.654-2.473,11.949,11.949,0,0,1-.722-4.983.22.22,0,0,0-.44,0,13.582,13.582,0,0,0,.6,4.766,5.2,5.2,0,0,0,2.466,2.87,4.493,4.493,0,0,0,4.126-.364,22.057,22.057,0,0,0,3.789-2.6,25.065,25.065,0,0,0,3.6-3.691C325.962,254.021,325.653,253.708,325.477,253.93Z" transform="translate(-305.043 -195.643)" fill="#2e3456"/>
              <path id="Path_1823" data-name="Path 1823" d="M341.872,248.592q-1.941,8.151-3.883,16.3l-1.092,4.581c-.065.276.359.393.425.117q1.941-8.151,3.883-16.3l1.091-4.582C342.362,248.434,341.938,248.316,341.872,248.592Z" transform="translate(-315.589 -193.749)" fill="#2e3456"/>
            </g>
            <g id="Group_592" data-name="Group 592" transform="translate(71.487)">
              <path id="Path_1824" data-name="Path 1824" d="M354.837,116.927v10.982a8.492,8.492,0,0,1-.268,2.126,8.6,8.6,0,0,1-5.683,6l1.382,4.072.717,2.117a2.979,2.979,0,0,1-2.1,3.794c-3.015,1.043-13.874-6.963-13.874-6.963l.687-10.111.15-2.188.022-.053a5.373,5.373,0,0,1-2.808-3.024,7.857,7.857,0,0,1-.278-4.314,4.508,4.508,0,0,1,.533-1.5,1.91,1.91,0,0,1,2.98-.511,4.015,4.015,0,0,1,1.03,1.312c.15-.11.3-.229.444-.348a15.311,15.311,0,0,0,1.483-1.4Z" transform="translate(-323.492 -102.846)" fill="#ffbc85"/>
              <path id="Path_1825" data-name="Path 1825" d="M352.659,145.2l.933,2.742a10.794,10.794,0,0,1-8.993-2.073,8.466,8.466,0,0,1-2.791-6.7,8.562,8.562,0,0,0,8.266,6.435h0A8.473,8.473,0,0,0,352.659,145.2Z" transform="translate(-327.265 -112.003)" fill="#2e3456"/>
              <path id="Path_1826" data-name="Path 1826" d="M349.413,107.162H332.9a15.313,15.313,0,0,1-1.483,1.4c-.145.119-.295.238-.444.348a4.015,4.015,0,0,0-1.03-1.312,1.91,1.91,0,0,0-2.98.511,4.507,4.507,0,0,0-.533,1.5,7.857,7.857,0,0,0,.278,4.314,5.373,5.373,0,0,0,2.808,3.024L329.5,117l-.15,2.188c-2.355-1.07-3.877-3.5-4.81-5.947a19.084,19.084,0,0,1-1.057-3.935,6.947,6.947,0,0,1-3.222-1.453,8.449,8.449,0,0,1-2.689-4.063,9.679,9.679,0,0,1,.489-6.959,7.037,7.037,0,0,1,2.416-2.927,4.635,4.635,0,0,1,3.671-.687,5.21,5.21,0,0,1,3.429,4.089,15.252,15.252,0,0,1,7.738-3.217,14.141,14.141,0,0,1,10.824,2.865,10.545,10.545,0,0,1,2.667,3.481A9.239,9.239,0,0,1,349.413,107.162Z" transform="translate(-317.139 -93.081)" fill="#2e3456"/>
              <path id="Path_1827" data-name="Path 1827" d="M359.067,126.155c.659,1.631,2.1,3.076,3.616,2.781a1.6,1.6,0,0,0,1.373-1.362c.062-.914-.86-1.235-1.384-1.678a4.242,4.242,0,0,1-.861-1.009c-.081-.131-.155-.272-.224-.411-.381-.883-.815-1.86-1.684-2.171-.7-.251-1.248.234-1.37,1a4.033,4.033,0,0,0,.1,1.376A8.231,8.231,0,0,0,359.067,126.155Z" transform="translate(-334.126 -105.054)" fill="#2e333f" opacity="0.8" style="mix-blend-mode: overlay;isolation: isolate"/>
              <circle id="Ellipse_42" data-name="Ellipse 42" cx="2.463" cy="2.463" r="2.463" transform="translate(16.818 20.643)" fill="#2e333f" opacity="0.8" style="mix-blend-mode: overlay;isolation: isolate"/>
              <path id="Path_1828" data-name="Path 1828" d="M365.308,117.6a.778.778,0,0,1,.918-.559,11.9,11.9,0,0,1,2.106.573.835.835,0,0,1,.464.335.759.759,0,0,1-.24,1.047.731.731,0,0,1-.582.095,11.851,11.851,0,0,0-2.106-.573.76.76,0,0,1-.56-.918Z" transform="translate(-336.91 -102.914)" fill="#2e3456"/>
              <path id="Path_1829" data-name="Path 1829" d="M349.979,117.53a18.779,18.779,0,0,1,2.5-.642.832.832,0,0,1,.588.058.759.759,0,0,1,.3,1.03.735.735,0,0,1-.443.363,18.666,18.666,0,0,0-2.5.642.76.76,0,1,1-.45-1.452Z" transform="translate(-330.407 -102.846)" fill="#2e3456"/>
              <ellipse id="Ellipse_43" data-name="Ellipse 43" cx="1.458" cy="1.514" rx="1.458" ry="1.514" transform="translate(20.086 17.024) rotate(-1.792)" fill="#2e3456"/>
              <ellipse id="Ellipse_44" data-name="Ellipse 44" cx="1.458" cy="1.514" rx="1.458" ry="1.514" transform="translate(28.227 17.083) rotate(-1.792)" fill="#2e3456"/>
              <path id="Path_1830" data-name="Path 1830" d="M336.742,122.42a1.542,1.542,0,0,0-1.4-1.139.994.994,0,0,0-.981,1.229c.086.28.539.2.452-.083a.518.518,0,0,1,.308-.645.81.81,0,0,1,.793.175,1.458,1.458,0,0,1,.441.783.735.735,0,0,1-.268.8,1.805,1.805,0,0,0,.217,2.814.23.23,0,0,0,.261-.379,1.336,1.336,0,0,1-.379-1.853c.18-.266.48-.426.6-.738A1.437,1.437,0,0,0,336.742,122.42Z" transform="translate(-324.196 -104.661)" fill="#2e3456"/>
              <path id="Path_1831" data-name="Path 1831" d="M356.737,134a2.712,2.712,0,0,1-2.368,2.225c-1.172.015-2.131-.994-2.773-1.871a1.919,1.919,0,0,1-.425-1.559,1.3,1.3,0,0,1,1.02-.937c1.133-.258,1.922.734,2.451,1.6a1.743,1.743,0,0,1,1.284-.643A.906.906,0,0,1,356.737,134Z" transform="translate(-331.098 -108.989)" fill="#2e3456"/>
              <path id="Path_1832" data-name="Path 1832" d="M353.613,112.357a4.787,4.787,0,0,0-4.676,4.426h-.573a4.69,4.69,0,0,0-9.363-.044l-5.621-.629c-.743-.083-1.7-.355-2.347.153a2.268,2.268,0,0,0-.654,1.776c-.025.566.856.565.88,0,.027-.612.094-1.221.845-1.185s1.519.164,2.272.249l4.614.516a4.693,4.693,0,0,0,9.38.045h.56a4.717,4.717,0,1,0,4.683-5.306Zm-9.926,9.023a4.125,4.125,0,1,1,3.931-4.12A4.032,4.032,0,0,1,343.687,121.38Zm9.926,0a4.125,4.125,0,1,1,3.931-4.12A4.035,4.035,0,0,1,353.613,121.38Z" transform="translate(-322.576 -100.997)" fill="#fd6700"/>
            </g>
          </g>
        </g>
      </g>
    </g>
  </g>
</svg>
