<svg xmlns="http://www.w3.org/2000/svg" width="375" height="376" viewBox="0 0 375 376">
  <g id="Group_40727" data-name="Group 40727" transform="translate(-1795 4014)">
    <g id="Group_40725" data-name="Group 40725" transform="translate(1795 -4045)">
      <rect id="Rectangle_18982" data-name="Rectangle 18982" width="375" height="375" transform="translate(0 31)" fill="#126e82"/>
    </g>
    <path id="Rectangle_18985" data-name="Rectangle 18985" d="M10,0H365a10,10,0,0,1,10,10V22a0,0,0,0,1,0,0H0a0,0,0,0,1,0,0V10A10,10,0,0,1,10,0Z" transform="translate(1795 -3660)" fill="#fff"/>
    <g id="Group_40726" data-name="Group 40726" transform="translate(1831.835 -3949.128)">
      <g id="Group_600" data-name="Group 600" transform="translate(0 0)">
        <path id="Path_1979" data-name="Path 1979" d="M271.962,937.483a17.8,17.8,0,0,0-14.277-3.547c-.424.058-.832.129-1.231.2-2.965-2.059-15.865-9.611-23.871,8.135-9.091,20.149-18.444,9.324-18.444,9.324s6.005,17.121,18.02,12.759c7.531-2.732,10.338-11.478,12.825-17.733a23.012,23.012,0,0,0,1.035,9.262c1.842,4.537,1.214,2.753,4.242,7.311,1.53,2.3,17.853,5.3,23.95-8.08C276.379,950.358,278.666,942.856,271.962,937.483Z" transform="translate(-141.579 -930.779)" fill="#0e2549"/>
        <path id="Path_1980" data-name="Path 1980" d="M283.894,993.11s-4.82,13.986-5.606,14.543c-11.428,8.118-10.634,14.144-11.981,14s18.356,3.9,18.356,3.9l12.093-1.036,1.526-8.205s-6.908-3.71-7.777-5.768,4.071-12.447,4.071-12.447Z" transform="translate(-172.013 -967.188)" fill="#fff"/>
        <path id="Path_1981" data-name="Path 1981" d="M283.744,1024.971l-.087-.017s-4.612-.948-9.22-1.909c-2.3-.482-4.608-.965-6.338-1.335-.865-.187-1.589-.345-2.092-.458-.932-.212-1.356-.308-1.264-.907a.626.626,0,0,1,.636-.528,7.271,7.271,0,0,0,.478-1c.973-2.287,2.99-7.041,11.149-12.85.595-.782,3.223-7.9,5.419-14.268l.225-.657,11.881,5.548-.27.566c-2.366,4.982-4.533,10.808-4.059,11.935.57,1.352,4.9,4.067,7.5,5.46l.4.216-1.7,9.12Zm-17.1-4.853c2.948.657,11.307,2.391,17.175,3.6l11.532-.986,1.356-7.294c-1.605-.886-6.824-3.888-7.656-5.855-.853-2.025,2.595-9.765,3.818-12.389l-9.49-4.429c-2.192,6.33-4.853,13.657-5.61,14.194-7.906,5.614-9.835,10.164-10.763,12.347C266.876,1019.6,266.76,1019.876,266.639,1020.117Z" transform="translate(-171.131 -965.979)" fill="#0e2549"/>
        <path id="Path_1982" data-name="Path 1982" d="M303.048,974.176c-1.206-1.705-3.206-4.986-2.458-7.14s3.073-.965,3.685-.341c.408.416,4.03-10.4,4.03-10.4l16.784,5.5s-1.11,10.081-3.976,15.72c-2.878,5.66-6.171,6.138-10.53,4.666a10.74,10.74,0,0,1-4.708-3.023Z" transform="translate(-191.982 -945.681)" fill="#fff"/>
        <path id="Path_1983" data-name="Path 1983" d="M313.4,982.392a12.306,12.306,0,0,1-3.884-.732,11.449,11.449,0,0,1-4.974-3.2.624.624,0,1,1,.932-.832,10.247,10.247,0,0,0,4.441,2.849c3.984,1.347,7.007,1.085,9.777-4.354,2.42-4.762,3.585-12.909,3.851-15l-15.707-5.153c-3.377,10.039-3.859,10.151-4.246,10.239l-.341.079-.279-.262a2.543,2.543,0,0,0-1.909-.678c-.216.05-.528.183-.74.79-.474,1.368.391,3.764,2.379,6.579a.624.624,0,0,1-1.019.719c-1.593-2.258-3.327-5.427-2.537-7.706a2.241,2.241,0,0,1,1.647-1.6,3.523,3.523,0,0,1,2.5.578c.67-1.414,2.229-5.747,3.56-9.723l.2-.586,17.853,5.855-.054.5c-.046.416-1.156,10.26-4.042,15.936C318.826,980.575,316.551,982.392,313.4,982.392Z" transform="translate(-191.117 -944.577)" fill="#0e2549"/>
        <path id="Path_1984" data-name="Path 1984" d="M327.5,958.707s-15.258-1.688-20.993,4.416a4.464,4.464,0,0,0-1.46-.986,2.117,2.117,0,0,0-1.306-.091l5.668-11.806Z" transform="translate(-193.918 -942.147)" fill="#0e2549"/>
        <path id="Path_1985" data-name="Path 1985" d="M242.212,1028.978c-7.257-3.676-27.813,22.544-32.874,32.633-10.351,20.644,18.236,15.861,18.236,15.861l-3.872-24.611,1.955,35.894L256,1090.763l6.87-31.681a.183.183,0,0,1,.362.021c.4,4.354,2.433,18.448,11.711,18.448h15.89l.961-8.983-15.541-1.8s-2.624-20.594-9.261-27.468c-3.131-3.244-5.71-5.157-7.061-5.485-3-.732-3.56,9.232-5.589,9.232C252.75,1043.055,246.783,1031.294,242.212,1028.978Z" transform="translate(-137.455 -988.156)" fill="#fff"/>
        <path id="Path_1986" data-name="Path 1986" d="M255.618,1090.548l-31.436-2.084-.59-10.887c-4.679.358-13.154.291-16.56-4.321-2.192-2.969-1.9-7.278.873-12.8,4.637-9.249,20.756-29.984,29.755-32.953a5.085,5.085,0,0,1,3.959.041h0c2.782,1.41,5.918,5.939,8.434,9.578,1.281,1.855,2.874,4.15,3.439,4.425.466-.162,1.164-2.4,1.543-3.614.9-2.878,1.921-6.142,4.167-5.6,1.58.387,4.263,2.445,7.365,5.656,6.213,6.434,8.916,24.1,9.365,27.339l15.674,1.809-1.085,10.155H274.07c-8.342,0-11.116-10.538-12.014-16.431Zm-30.246-3.252,29.256,1.938,6.754-31.157a.809.809,0,0,1,1.6.1c.391,4.2,2.346,17.882,11.091,17.882H289.4l.836-7.81-15.412-1.78-.062-.487c-.025-.2-2.674-20.469-9.091-27.114-3.41-3.531-5.731-5.061-6.762-5.311-1.106-.27-2.017,2.637-2.678,4.757-.786,2.512-1.406,4.5-2.761,4.5-.919,0-1.892-1.289-4.437-4.97-2.441-3.522-5.473-7.91-7.972-9.178h0a3.921,3.921,0,0,0-3,.029c-8.4,2.774-24.411,23.114-29.032,32.326-2.541,5.069-2.874,8.941-.981,11.5,3.032,4.1,11.046,4.142,15.487,3.806l-1.322-24.3,1.239-.133,3.967,25.223-.611.1c-.129.021-.853.137-1.963.254Zm-1.26-23.106.653,12.023c.495-.05.907-.1,1.214-.141Zm29.419-22.628h0Z" transform="translate(-136.58 -987.278)" fill="#0e2549"/>
        <path id="Path_1987" data-name="Path 1987" d="M346.5,990.855a1.024,1.024,0,0,1-.249-.029,1.038,1.038,0,0,1-.761-1.256l.137-.561a1.038,1.038,0,1,1,2.017.495l-.137.561A1.034,1.034,0,0,1,346.5,990.855Z" transform="translate(-218.286 -964.33)" fill="#0e2549"/>
        <path id="Path_1988" data-name="Path 1988" d="M326.54,986.2a.969.969,0,0,1-.245-.029,1.044,1.044,0,0,1-.765-1.256l.137-.562a1.04,1.04,0,1,1,2.021.491l-.137.561A1.042,1.042,0,0,1,326.54,986.2Z" transform="translate(-206.629 -961.608)" fill="#0e2549"/>
        <path id="Path_1989" data-name="Path 1989" d="M328.7,978.452a.629.629,0,0,1-.428-.171,4.42,4.42,0,0,0-4.329-.682.623.623,0,0,1-.374-1.189,5.652,5.652,0,0,1,5.569.969.62.62,0,0,1,.017.882A.63.63,0,0,1,328.7,978.452Z" transform="translate(-205.244 -957.246)" fill="#0e2549"/>
        <path id="Path_1990" data-name="Path 1990" d="M338.378,989.87a9.063,9.063,0,0,1-1.859-.245.623.623,0,1,1,.262-1.219,8.879,8.879,0,0,0,1.647.216c-.012-.05-.029-.1-.042-.141a10.562,10.562,0,0,1-.474-3.443c.021-1.618.3-2.607.9-3.111a1.723,1.723,0,0,1,1.435-.329,8.191,8.191,0,0,1,3.768,1.95.624.624,0,0,1-.853.911,7,7,0,0,0-3.111-1.63c-.287-.046-.374,0-.433.05-.133.112-.441.545-.457,2.171a9.319,9.319,0,0,0,.42,3.069,1.476,1.476,0,0,1,.012,1.289C339.5,989.571,339.306,989.87,338.378,989.87Z" transform="translate(-212.778 -960.443)" fill="#0e2549"/>
        <path id="Path_1991" data-name="Path 1991" d="M315.409,1133.668c-3.535-.3-18.689,1.747-18.689,1.747L298,1127.23s16.531,2.811,17.778,2.454a37.381,37.381,0,0,1,8.226-1.027c3.668-.141,7.157,1.672,7.1,2.67-.029.537-5.281-.507-6.546,0C320.986,1132.753,317.929,1133.884,315.409,1133.668Z" transform="translate(-189.817 -1045.875)" fill="#fff"/>
        <path id="Path_1992" data-name="Path 1992" d="M294.93,1135.126l1.505-9.636.624.1c6.226,1.06,16.489,2.666,17.516,2.466a36.44,36.44,0,0,1,8.359-1.048c3.011-.112,6.1,1.052,7.232,2.2a1.5,1.5,0,0,1,.52,1.123.717.717,0,0,1-.25.5c-.387.333-1.094.291-3.086.112a14.017,14.017,0,0,0-3.6-.067c-3.722,1.493-6.783,2.616-9.436,2.391h0c-3.427-.3-18.4,1.722-18.552,1.743Zm2.541-8.193-1.052,6.737c3.252-.428,14.876-1.909,17.995-1.639,2.375.2,5.423-.923,8.866-2.3.736-.3,2.133-.2,4.175-.017.478.042,1.06.1,1.522.12a10.424,10.424,0,0,0-6-1.568,35.251,35.251,0,0,0-8.076,1.006C313.682,1129.62,301.971,1127.69,297.471,1126.933Z" transform="translate(-188.771 -1044.858)" fill="#0e2549"/>
        <path id="Path_1993" data-name="Path 1993" d="M228.8,1088.274l24.445,8.022-3.285,9.715s-19.538.566-23.717,0c-7.785-1.052-16.111-7.91-16.111-7.91l15.807-21.2Z" transform="translate(-139.237 -1016.413)" fill="#fff"/>
        <path id="Path_1994" data-name="Path 1994" d="M452.491,1065.97l-7.535,30.512H400.94l8.912-30.512Z" transform="translate(-250.695 -1010.009)" fill="#ebf4fe"/>
        <path id="Path_1995" data-name="Path 1995" d="M444.242,1096.224H398.85l9.29-31.814H452.1Zm-43.654-1.3h42.635l7.215-29.21H409.118Z" transform="translate(-249.474 -1009.096)" fill="#0e2549"/>
        <rect id="Rectangle_693" data-name="Rectangle 693" width="57.169" height="2.886" transform="translate(137.054 86.378)" fill="#d8e3e7"/>
        <path id="Path_1996" data-name="Path 1996" d="M426.133,1141.974H367.72v-4.134h58.417v4.134Zm-57.165-1.248h55.922v-1.639H368.968Z" transform="translate(-231.29 -1052.085)" fill="#d8e3e7"/>
        <path id="Path_1997" data-name="Path 1997" d="M457.232,1099.165c-.2,2.362,1.194,4.412,3.119,4.579s3.651-1.618,3.855-3.98-1.193-4.412-3.119-4.579S457.436,1096.8,457.232,1099.165Z" transform="translate(-283.566 -1027.095)" fill="#d8e3e7"/>
        <path id="Path_1998" data-name="Path 1998" d="M459.723,1103.506c-.1,0-.2,0-.3-.012a3.8,3.8,0,0,1-2.82-1.734,5.441,5.441,0,0,1-.869-3.518h0c.233-2.7,2.267-4.745,4.529-4.55s3.917,2.549,3.689,5.252a5.435,5.435,0,0,1-1.456,3.319A3.832,3.832,0,0,1,459.723,1103.506Zm-2.749-5.161a4.159,4.159,0,0,0,.657,2.712,2.444,2.444,0,0,0,3.967.341,4.169,4.169,0,0,0,1.106-2.558c.175-2.017-.973-3.768-2.549-3.9s-3.007,1.393-3.181,3.41Z" transform="translate(-282.687 -1026.22)" fill="#1b2746"/>
        <path id="Path_1999" data-name="Path 1999" d="M273.118,1110.017a.578.578,0,0,1-.553-.765l2.89-8.55-25.975-4.117L257,1083.921a.583.583,0,1,1,1,.595L251.36,1095.7,277,1099.77l-3.335,9.856A.576.576,0,0,1,273.118,1110.017Z" transform="translate(-162.223 -1020.357)" fill="#0e2549"/>
        <path id="Path_2000" data-name="Path 2000" d="M328.04,1002.59s2.845,4.558,5.851,1.439a2.415,2.415,0,0,0-2.217-.665A6.306,6.306,0,0,0,328.04,1002.59Z" transform="translate(-208.112 -972.722)" fill="#e2474b"/>
        <path id="Path_2001" data-name="Path 2001" d="M315.442,1302.287H133.853L115.06,1146.27H334.93Z" transform="translate(-83.704 -1057.654)" fill="#054262"/>
        <path id="Path_2002" data-name="Path 2002" d="M315.008,1302.035H132.317L113.37,1144.77H334.649l-.087.7Zm-181.589-1.248H313.906l19.33-154.769H114.776Z" transform="translate(-82.716 -1056.778)" fill="#1b2746"/>
        <path id="Path_2003" data-name="Path 2003" d="M43.16,1194.72s10.492,29.04,10.492,40.847,2.108,22.9,10.85,26.449a14.024,14.024,0,0,0,16.535-3.959c1.826-2.624,5.444-19.259-12.426-38.709C61.6,1211.712,43.16,1194.72,43.16,1194.72Z" transform="translate(-41.704 -1085.573)" fill="#fda429"/>
        <path id="Path_2004" data-name="Path 2004" d="M68.255,1260.747a15.9,15.9,0,0,1-6.03-1.235c-7.565-3.069-11.241-11.906-11.241-27.027,0-11.561-10.351-40.344-10.455-40.635l-.869-2.4,1.876,1.73c.183.17,18.535,17.1,25.489,24.665,9.615,10.467,12.788,19.908,13.753,25.988,1.1,6.916-.2,11.952-1.277,13.5A14.449,14.449,0,0,1,68.255,1260.747Zm-25.709-66.93c2.512,7.228,9.686,28.745,9.686,38.672,0,14.555,3.423,23.014,10.463,25.871a13.317,13.317,0,0,0,15.786-3.739c1.505-2.163,5.618-18.344-12.372-37.931C60.5,1210.589,47.4,1198.329,42.546,1193.817Z" transform="translate(-39.66 -1082.492)" fill="#1b2746"/>
        <path id="Path_2005" data-name="Path 2005" d="M98.206,1311.117a.552.552,0,0,1-.545-.486c-2.15-19.35-22.041-59.735-22.241-60.143a.55.55,0,1,1,.986-.487c.2.407,20.178,40.967,22.349,60.509a.55.55,0,0,1-.487.607Z" transform="translate(-60.516 -1117.785)" fill="#0e2549"/>
        <path id="Path_2006" data-name="Path 2006" d="M103.891,1113.43s-8.958,38.983-5.51,62.63c2.953,20.253,7.128,28.466,15.624,26.986,14.243-2.483,6.209-48.865,1.792-61.711A279.473,279.473,0,0,0,103.891,1113.43Z" transform="translate(-73.499 -1037.957)" fill="#fda429"/>
        <path id="Path_2007" data-name="Path 2007" d="M111.281,1201.252a8.26,8.26,0,0,1-5.007-1.6c-4.354-3.156-7.157-10.958-9.361-26.087-3.427-23.492,5.427-62.468,5.519-62.863l.391-1.7.778,1.559a281.248,281.248,0,0,1,11.935,27.98c4.021,11.694,10.1,46.652,3.123,58.454a7.808,7.808,0,0,1-5.4,4.075A11.5,11.5,0,0,1,111.281,1201.252Zm-8.022-88.522c-1.668,7.839-8.1,40.223-5.119,60.654,2.125,14.572,4.857,22.361,8.858,25.26a7.589,7.589,0,0,0,6.038,1.2,6.6,6.6,0,0,0,4.537-3.481c2.919-4.941,3.751-15.208,2.346-28.9-1.181-11.5-3.7-23.043-5.577-28.508A267.423,267.423,0,0,0,103.259,1112.73Z" transform="translate(-72.643 -1035.365)" fill="#1b2746"/>
        <path id="Path_2008" data-name="Path 2008" d="M126.567,1268.64h-.046a.549.549,0,0,1-.5-.59c.961-11.811-9.361-89.666-9.465-90.451a.548.548,0,1,1,1.085-.146c.428,3.211,10.442,78.757,9.469,90.684A.538.538,0,0,1,126.567,1268.64Z" transform="translate(-84.572 -1075.253)" fill="#0e2549"/>
        <path id="Path_2009" data-name="Path 2009" d="M75.72,1396.07h48.669l-5.826,52.021-37.3.112Z" transform="translate(-60.724 -1203.57)" fill="#fff"/>
        <path id="Path_2010" data-name="Path 2010" d="M306.193,1031.9a.127.127,0,0,1-.029,0c-.008-.066-.021-.137-.033-.2l1.456-.827-3.019-2.279-.728,1.455a2.246,2.246,0,0,0-.782.22c-2.291-1.439-9.332-5.693-12.276-5.614l-1.7,3.1s5.352,2.375,8.937,4.059a10.914,10.914,0,0,0-2.416,4.583,46.045,46.045,0,0,1,5.61-1.119,2.555,2.555,0,0,0,2.034-1.069,2.17,2.17,0,0,0,.736.15c.013.166.033.337.067.528.6,3.485,5.776,6.192,5.776,6.192S311.969,1035.619,306.193,1031.9Z" transform="translate(-185.354 -985.78)" fill="#707070"/>
        <path id="Path_2011" data-name="Path 2011" d="M310.3,1087.752a.76.76,0,0,1-.166-.021.621.621,0,0,1-.432-.77,125.708,125.708,0,0,0,3.951-24.549.622.622,0,1,1,1.243.054,126.782,126.782,0,0,1-3.992,24.827A.629.629,0,0,1,310.3,1087.752Z" transform="translate(-197.388 -1007.57)" fill="#0e2549"/>
        <path id="Path_2012" data-name="Path 2012" d="M307.621,1083.881a1.431,1.431,0,1,1-1.431-1.431A1.431,1.431,0,0,1,307.621,1083.881Z" transform="translate(-194.513 -1019.634)" fill="#707070"/>
        <path id="Path_2013" data-name="Path 2013" d="M302.741,1105.331a1.431,1.431,0,1,1-1.431-1.431A1.431,1.431,0,0,1,302.741,1105.331Z" transform="translate(-191.663 -1032.2)" fill="#707070"/>
      </g>
      <g id="Group_601" data-name="Group 601" transform="translate(181.422 11.338)">
        <path id="Path_2014" data-name="Path 2014" d="M639.334,989.976s-3.373-22.486,3.539-28.171c5.352-4.4,14.776-6.346,21.829,2.15s5.9,27.938,5.9,27.938l-4.042-.25-.279-1.252-.948,1.177-22.1-1.356-1.027-1.435-.283,1.356Z" transform="translate(-570.89 -958.042)" fill="#0e2549"/>
        <path id="Path_2015" data-name="Path 2015" d="M585.325,1467.86l-1.955,16.647,8.833-.786,3-15.861Z" transform="translate(-538.68 -1256.843)" fill="#e2dcdc"/>
        <path id="Path_2016" data-name="Path 2016" d="M581.66,1484.327l2.113-17.957h11.183l-3.227,17.063Zm3.223-16.714-1.8,15.333,7.6-.674,2.77-14.659Z" transform="translate(-537.681 -1255.972)" fill="#0e2549"/>
        <path id="Path_2017" data-name="Path 2017" d="M692.05,1470.417l.229,15,8.2-.728,1.173-15.175Z" transform="translate(-602.163 -1257.807)" fill="#e2dcdc"/>
        <path id="Path_2018" data-name="Path 2018" d="M690.78,1485.125l-.25-16.244,10.912-1.031-1.268,16.439Zm1.015-15.113.212,13.749,7-.624,1.073-13.911Z" transform="translate(-601.275 -1256.837)" fill="#0e2549"/>
        <path id="Path_2019" data-name="Path 2019" d="M614.141,1179.773,621.315,1191l6.413,100.64h12.547s5.909-92.3,4.708-104.978-12.339-23.655-12.339-23.655l-.549-5.057-26.117-1.168L584.02,1289.97l12.447.8,24.886-98.615Z" transform="translate(-539.059 -1075.131)" fill="#fff"/>
        <path id="Path_2020" data-name="Path 2020" d="M639.829,1291.346H626.113l-6.13-96.211-24.07,95.38-13.653-.877,22.162-134.417,27.206,1.214.582,5.369c1.431,1.452,11.22,11.794,12.364,23.879,1.189,12.588-4.466,101.31-4.708,105.077Zm-12.547-1.248h11.374c.5-7.893,5.805-92.331,4.674-104.3-1.164-12.306-12.048-23.16-12.156-23.268l-.158-.158-.516-4.745-25.031-1.119-21.758,131.968,11.241.724,24.761-98.112.008,0-.05-.811-7.086-11.087,1.052-.674,7.261,11.362.008.162Z" transform="translate(-538.031 -1074.22)" fill="#1b2746"/>
        <path id="Path_2021" data-name="Path 2021" d="M656.137,1008.97s-1.023,12.713-.566,13.4c1.572,2.358,14.493,11.07,15.608,11.416s-26.778.52-26.778.52l-9.191-4.965,3.743-3.115a20.884,20.884,0,0,0,4.487-2.732c1.389-1.327,2.554-14.256,2.554-14.256Z" transform="translate(-568.961 -987.791)" fill="#e2dcdc"/>
        <path id="Path_2022" data-name="Path 2022" d="M642.683,1034.043l-10.143-5.481,4.516-3.759.075-.033a20.534,20.534,0,0,0,4.317-2.616c.753-.719,1.813-7.752,2.362-13.857l.05-.553,11.395-.3-.054.695c-.4,4.882-.844,12.081-.632,13.058,1.613,2.254,14.139,10.734,15.237,11.116a.642.642,0,0,1,.462.707c-.108.719-.108.732-14.031.907-6.621.083-13.324.125-13.391.125Zm-7.926-5.7,8.238,4.45c8.284-.05,20.007-.179,24.578-.341-4-2.491-12.78-8.675-14.081-10.625-.374-.561-.237-4.97.408-13.1l-8.9.237c-.337,3.6-1.322,12.788-2.695,14.1a20.625,20.625,0,0,1-4.583,2.811Z" transform="translate(-567.401 -986.897)" fill="#0e2549"/>
        <path id="Path_2023" data-name="Path 2023" d="M663.279,989.607c1.535-.932,4.242-2.836,4.392-4.795s-2.1-1.817-2.79-1.535c-.462.187.391-9.594.391-9.594l-15.138-1.414s-2.583,8.338-2.254,13.77c.329,5.456,2.766,6.962,6.712,7.294a9.282,9.282,0,0,0,4.753-.769Z" transform="translate(-576.345 -966.353)" fill="#e2dcdc"/>
        <path id="Path_2024" data-name="Path 2024" d="M654.627,993.049c-.32,0-.645-.013-.977-.042-4.862-.412-6.97-2.695-7.282-7.881-.328-5.485,2.175-13.649,2.283-13.994l.15-.482,16.256,1.518-.054.615c-.3,3.506-.553,7.369-.528,8.787a3.011,3.011,0,0,1,2.142.432,2.015,2.015,0,0,1,.786,1.9c-.158,2.109-2.637,4.034-4.687,5.281a.623.623,0,1,1-.649-1.065c2.508-1.526,4-3.094,4.092-4.308.037-.507-.142-.7-.279-.8a2.119,2.119,0,0,0-1.655-.108l-.324.133-.312-.212c-.324-.237-.657-.482.121-9.532l-14.007-1.31c-.532,1.847-2.358,8.546-2.083,13.067.312,5.182,2.582,6.408,6.142,6.712a8.714,8.714,0,0,0,4.437-.715.623.623,0,1,1,.524,1.131A9.762,9.762,0,0,1,654.627,993.049Z" transform="translate(-575.461 -965.407)" fill="#0e2549"/>
        <path id="Path_2025" data-name="Path 2025" d="M494.984,1134.765c3.535-.3,19.338-.566,19.338-.566v-7.12s-18.431,3.647-19.679,3.29a18.557,18.557,0,0,0-8.854-.1c-3.564.89-8.434,3.19-8.38,4.188.029.536,8.005-1.256,9.918-.832C491.087,1134.458,492.464,1134.982,494.984,1134.765Z" transform="translate(-476.784 -1057.092)" fill="#fff"/>
        <path id="Path_2026" data-name="Path 2026" d="M493.013,1134.37a19.737,19.737,0,0,1-4.716-.753c-.586-.137-1.239-.291-1.984-.457-.907-.2-3.776.22-5.872.528-3.219.474-3.884.536-4.279.216a.688.688,0,0,1-.254-.491c-.1-1.813,6.292-4.188,8.85-4.828a19.333,19.333,0,0,1,9.178.112c1.077.175,12.464-1.93,19.388-3.3l.744-.146v8.5l-.615.008c-.158,0-15.82.266-19.3.561h0C493.753,1134.354,493.375,1134.37,493.013,1134.37Zm1.094-.674h0Zm-16.963-.254Zm8.488-1.58a4.357,4.357,0,0,1,.952.083c.753.166,1.41.32,2,.461a15.422,15.422,0,0,0,5.473.674h0c3.161-.27,15.782-.507,18.768-.557v-5.747c-5.044.994-18,3.485-19.23,3.127a17.954,17.954,0,0,0-8.534-.1,27.207,27.207,0,0,0-7.174,2.986c.694-.083,1.584-.212,2.37-.328A42.948,42.948,0,0,1,485.631,1131.863Z" transform="translate(-475.907 -1056.022)" fill="#0e2549"/>
        <path id="Path_2027" data-name="Path 2027" d="M625.5,1055.176c3.564-.424,11.985,11.312,16.959,19.537,6.608,10.929-15.212,18.764-15.034,19.113l2.454-12.663-7.868-9.195-3.56,23.1-28.587-.64-3.647-18.539s-2.753,12.2-9.195,12.2l-19.13,0v-8.675l14.755-2.466s7.228-20.427,14.006-25.854c3.2-2.562,5-3.319,6.284-3.514C596.8,1046.975,597.485,1058.5,625.5,1055.176Z" transform="translate(-523.796 -1010.528)"/>
        <path id="Path_2028" data-name="Path 2028" d="M565.566,1499.778s-12.318-2.225-12.659,3.144,0,5.028,0,5.028h21.484l.42-6.479S566.726,1503.28,565.566,1499.778Z" transform="translate(-520.797 -1275.22)"/>
        <path id="Path_2029" data-name="Path 2029" d="M552.126,1507.814l-.432-.183c-.437-.2-.7-.316-.362-5.664a3.535,3.535,0,0,1,1.422-2.662c3.335-2.612,11.653-1.144,12.006-1.081l.383.071.121.366c.8,2.412,6.4,1.73,8.484,1.26l.848-.191-.52,7.956H552.251Zm.37-1.431h20.361l.328-5.028c-2.192.383-7.6,1-9-1.909-1.58-.245-8.093-1.1-10.621.882a2.276,2.276,0,0,0-.923,1.722A40.269,40.269,0,0,0,552.5,1506.383Z" transform="translate(-519.875 -1274.306)" fill="#0e2549"/>
        <path id="Path_2030" data-name="Path 2030" d="M673.4,1497.759s-12.447-2.055-12.788,3.693,0,5.381,0,5.381h21.484l.328-6.754S674.555,1501.505,673.4,1497.759Z" transform="translate(-583.708 -1274.099)"/>
        <path id="Path_2031" data-name="Path 2031" d="M659.844,1506.683l-.441-.179c-.462-.2-.715-.308-.374-6.022a3.909,3.909,0,0,1,1.53-2.928c3.439-2.745,11.665-1.422,12.014-1.364l.4.066.121.383c.815,2.624,6.255,2.242,8.284,1.871l.807-.146-.4,8.193H659.96Zm.349-1.43h20.348l.258-5.344c-2.063.258-7.423.6-8.8-2.491-1.6-.221-8.005-.936-10.621,1.152a2.629,2.629,0,0,0-1.044,1.988A46.751,46.751,0,0,0,660.193,1505.253Z" transform="translate(-582.782 -1273.176)" fill="#0e2549"/>
        <path id="Path_2032" data-name="Path 2032" d="M654.844,995.409a.683.683,0,0,1-.266-.058,1.774,1.774,0,0,0-1.11-.1.632.632,0,0,1-.773-.424.624.624,0,0,1,.416-.773,2.992,2.992,0,0,1,2,.162.624.624,0,0,1-.266,1.189Z" transform="translate(-579.159 -979.02)" fill="#0e2549"/>
        <path id="Path_2033" data-name="Path 2033" d="M670.766,996.745a.663.663,0,0,1-.312-.083,2.178,2.178,0,0,0-1.364-.266.622.622,0,0,1-.308-1.206,3.4,3.4,0,0,1,2.3.4.621.621,0,0,1-.312,1.16Z" transform="translate(-588.298 -979.699)" fill="#0e2549"/>
        <path id="Path_2034" data-name="Path 2034" d="M672.169,990.364a.524.524,0,0,1-.2-.033,14.772,14.772,0,0,0-3.389-.815.629.629,0,0,1-.595-.653.62.62,0,0,1,.649-.595,15.168,15.168,0,0,1,3.73.877.625.625,0,0,1-.2,1.219Z" transform="translate(-588.108 -975.697)" fill="#0e2549"/>
        <path id="Path_2035" data-name="Path 2035" d="M655.388,1008.97c-.245.274,1.069.961,2.113.961,2.624,0,1.95-.545,1.293-.574C658.079,1009.323,655.388,1008.97,655.388,1008.97Z" transform="translate(-580.73 -987.791)" fill="#0e2549"/>
        <rect id="Rectangle_694" data-name="Rectangle 694" width="22.32" height="1.239" transform="translate(76.421 231.665)"/>
        <rect id="Rectangle_695" data-name="Rectangle 695" width="22.32" height="1.239" transform="translate(31.694 231.936)" fill="#0e2549"/>
        <path id="Path_2036" data-name="Path 2036" d="M699.481,1187.717a.6.6,0,0,1-.383-.133l-10.9-8.533a.625.625,0,0,1,.769-.986l10.9,8.534a.627.627,0,0,1,.108.877A.64.64,0,0,1,699.481,1187.717Z" transform="translate(-599.776 -1086.894)" fill="#0e2549"/>
        <path id="Path_2037" data-name="Path 2037" d="M661.939,1193.773a.623.623,0,0,1-.528-.287l-6.471-10.126.441-20.128a.624.624,0,1,1,1.248.025L656.2,1183l6.267,9.806a.621.621,0,0,1-.191.861A.592.592,0,0,1,661.939,1193.773Z" transform="translate(-580.486 -1077.961)" fill="#0e2549"/>
        <path id="Path_2038" data-name="Path 2038" d="M634.331,1183.176a.626.626,0,0,1-.453-1.056l2.462-2.57a.624.624,0,1,1,.9.865l-2.462,2.57A.621.621,0,0,1,634.331,1183.176Z" transform="translate(-568.082 -1087.718)" fill="#0e2549"/>
        <path id="Path_2039" data-name="Path 2039" d="M657.446,995.08a.557.557,0,0,1-.121-.012c-2.3-.457-2.387-1.048-2.425-1.3a1.362,1.362,0,0,1,.47-1.081,7.868,7.868,0,0,0,1.372-2.258,4.259,4.259,0,0,0,.466-1.614h-.071c-.973.025-3.269.116-3.269.116l-.05-1.248s2.3-.087,3.285-.116a1.235,1.235,0,0,1,1.135.491c.37.541.266,1.4-.349,2.857a9.205,9.205,0,0,1-1.568,2.578l0,0a8.685,8.685,0,0,0,1.248.345.623.623,0,0,1-.121,1.235Z" transform="translate(-579.832 -975.289)" fill="#0e2549"/>
        <path id="Path_2040" data-name="Path 2040" d="M668.142,969.955l-.973,6.991L661.06,975.7l-.183-1.422-.915,1.185-7.872-.707-.649-1.306-.611.828H649l1.83-7.19Z" transform="translate(-577.016 -963.327)" fill="#0e2549"/>
        <path id="Path_2041" data-name="Path 2041" d="M649.793,1360.477H622.782A17.881,17.881,0,0,1,604.9,1342.6v-63.653a17.881,17.881,0,0,1,17.882-17.882h27.011a17.881,17.881,0,0,1,17.882,17.882V1342.6A17.881,17.881,0,0,1,649.793,1360.477Z" transform="translate(-551.256 -1136.044)" fill="#fda429"/>
        <path id="Path_2042" data-name="Path 2042" d="M675.822,1210.382H650.5v-28.566a12.491,12.491,0,0,1,12.476-12.476h.366a12.491,12.491,0,0,1,12.476,12.476v28.566Zm-24.075-1.248H674.57v-27.318a11.24,11.24,0,0,0-11.228-11.229h-.366a11.24,11.24,0,0,0-11.228,11.229Z" transform="translate(-577.893 -1081.922)" fill="#0e2549"/>
        <path id="Path_2043" data-name="Path 2043" d="M647.136,1503.508a4.408,4.408,0,1,1-4.408-4.408A4.41,4.41,0,0,1,647.136,1503.508Z" transform="translate(-570.778 -1275.091)" fill="#0e2549"/>
        <path id="Path_2044" data-name="Path 2044" d="M705.246,1503.508a4.408,4.408,0,1,1-4.408-4.408A4.41,4.41,0,0,1,705.246,1503.508Z" transform="translate(-604.722 -1275.091)" fill="#0e2549"/>
        <path id="Path_2045" data-name="Path 2045" d="M681.271,1136.712c-.216.121-1.6.894-9.178,6.987-4.658,3.743-7.344,5.964-8.234,6.2-1.252.328-5.606-.774-6.537-.362-.566.249,2.836,2.083,2.949,2.171l-1.56,1.219s-.071.823.433,1.089c.432.229,1.123-.042,1.48.224a6.183,6.183,0,0,0,.686.936c.3.228,1.052-.021,1.4.045.254.05.474.782.832.9.578.183,1.006-.412,1.418-.287.387.116.333.815,1.023.985.674.167,1.784-3.705,2.391-4.142,2.133-1.531,20.165-7.852,22.736-12.231S681.271,1136.712,681.271,1136.712Z" transform="translate(-581.84 -1062.735)" fill="#dde4e8"/>
        <path id="Path_2046" data-name="Path 2046" d="M665.169,1156.555a.79.79,0,0,1-.216-.029,1.622,1.622,0,0,1-1.073-.911.087.087,0,0,0-.017-.025l-.1.046a1.648,1.648,0,0,1-1.3.183,1.621,1.621,0,0,1-.815-.769c-.021-.033-.046-.071-.071-.1-.071,0-.154.017-.22.021a1.813,1.813,0,0,1-1.31-.187,3.613,3.613,0,0,1-.732-.94c-.071,0-.208,0-.308,0a2.029,2.029,0,0,1-1.044-.171,1.79,1.79,0,0,1-.761-1.7l.025-.27,1.048-.819c-2.3-1.343-2.549-1.734-2.524-2.2a.705.705,0,0,1,.437-.615c.6-.266,1.747-.129,3.56.112a13.06,13.06,0,0,0,3.069.216c.665-.175,3.152-2.179,6.6-4.949l1.406-1.131c6.924-5.564,8.787-6.783,9.266-7.049l.125-.071.141-.008c.915-.05,8.966-.391,10.547,2.2a2.27,2.27,0,0,1-.141,2.462c-1.9,3.235-10.975,7.132-17.608,9.977a50.219,50.219,0,0,0-5.3,2.445,10.67,10.67,0,0,0-.773,1.605C666.4,1155.469,665.934,1156.555,665.169,1156.555Zm-1.206-2.258a1.078,1.078,0,0,1,.3.042,1.221,1.221,0,0,1,.715.674,1.755,1.755,0,0,0,.1.179,15.836,15.836,0,0,0,.857-1.793,5.647,5.647,0,0,1,1.194-2.125,45.514,45.514,0,0,1,5.535-2.578c5.735-2.462,15.333-6.583,17.021-9.461.383-.653.27-.99.154-1.181-.89-1.46-6.088-1.763-9.266-1.614-.553.337-2.52,1.672-8.97,6.858l-1.406,1.131c-4.362,3.514-6.172,4.949-7.061,5.182a11.865,11.865,0,0,1-3.552-.187c-.495-.067-1.11-.15-1.651-.2.358.229.844.52,1.5.894.191.108.316.183.337.2l.653.491-1.955,1.526c.021.121.054.225.091.241a1.492,1.492,0,0,0,.432.025,1.712,1.712,0,0,1,1.131.254.987.987,0,0,1,.25.312,6.529,6.529,0,0,0,.412.595,2.937,2.937,0,0,0,.449-.029,2.325,2.325,0,0,1,.719-.008,1.241,1.241,0,0,1,.757.657,2.207,2.207,0,0,0,.183.262.792.792,0,0,0,.333-.125A1.617,1.617,0,0,1,663.963,1154.3Zm-1.052.362Zm-2.167-.911Z" transform="translate(-580.963 -1061.842)" fill="#0e2549"/>
        <path id="Path_2047" data-name="Path 2047" d="M709.486,1120.02,694.17,1132.5l6.117,6.371s13.424-4.629,14.356-8.138c1.023-3.839-5.36-5.352-5.36-5.352Z" transform="translate(-603.401 -1052.971)" fill="#fff"/>
        <path id="Path_2048" data-name="Path 2048" d="M671.573,1321.24H639.364a2.034,2.034,0,0,1-2.034-2.033v-15.953a2.034,2.034,0,0,1,2.034-2.034h32.209a2.034,2.034,0,0,1,2.034,2.034v15.953A2.034,2.034,0,0,1,671.573,1321.24Z" transform="translate(-570.199 -1159.168)" fill="#0e2549"/>
        <path id="Path_2049" data-name="Path 2049" d="M673.44,1364.218H652.784a.624.624,0,1,1,0-1.248H673.44a.624.624,0,0,1,0,1.248Z" transform="translate(-578.862 -1195.295)" fill="#0e2549"/>
      </g>
    </g>
  </g>
</svg>
